RecursiveTrio-TextRegular.ufo
<glyph name="C" format="1">
  <advance width="600"/>
  <unicode hex="0043"/>
  <outline>
    <contour>
      <point x="525" y="415" type="line"/>
      <point x="525" y="579" type="line" smooth="yes"/>
      <point x="525" y="612"/>
      <point x="512" y="645"/>
      <point x="484" y="674" type="curve" smooth="yes"/>
      <point x="457" y="701"/>
      <point x="426" y="696"/>
      <point x="413" y="670" type="curve"/>
      <point x="425" y="652"/>
      <point x="435" y="622"/>
      <point x="435" y="597" type="curve" smooth="yes"/>
      <point x="435" y="451" type="line" smooth="yes"/>
      <point x="435" y="445"/>
      <point x="437" y="442"/>
      <point x="441" y="437" type="curve" smooth="yes"/>
      <point x="456" y="422"/>
      <point x="479" y="415"/>
      <point x="509" y="415" type="curve" smooth="yes"/>
    </contour>
    <contour>
      <point x="390" y="720" type="curve" smooth="yes"/>
      <point x="220" y="720"/>
      <point x="73" y="501"/>
      <point x="73" y="258" type="curve" smooth="yes"/>
      <point x="73" y="234" type="line" smooth="yes"/>
      <point x="73" y="183"/>
      <point x="122" y="122"/>
      <point x="180" y="112" type="curve"/>
      <point x="167" y="153"/>
      <point x="163" y="197"/>
      <point x="163" y="231" type="curve"/>
      <point x="163" y="247" type="line"/>
      <point x="163" y="450"/>
      <point x="282" y="630"/>
      <point x="391" y="630" type="curve" smooth="yes"/>
      <point x="419" y="630"/>
      <point x="444" y="620"/>
      <point x="469" y="603" type="curve"/>
      <point x="498" y="620"/>
      <point x="506" y="651"/>
      <point x="484" y="674" type="curve"/>
      <point x="457" y="700"/>
      <point x="427" y="720"/>
    </contour>
    <contour>
      <point x="325" y="-20" type="curve" smooth="yes"/>
      <point x="454" y="-20"/>
      <point x="549" y="39"/>
      <point x="549" y="90" type="curve" smooth="yes"/>
      <point x="549" y="123"/>
      <point x="549" y="149"/>
      <point x="549" y="164" type="curve"/>
      <point x="533" y="164" type="line"/>
      <point x="483" y="99"/>
      <point x="420" y="70"/>
      <point x="325" y="70" type="curve" smooth="yes"/>
      <point x="199" y="70"/>
      <point x="149" y="155"/>
      <point x="149" y="280" type="curve"/>
      <point x="105" y="281"/>
      <point x="73" y="272"/>
      <point x="73" y="251" type="curve" smooth="yes"/>
      <point x="73" y="234" type="line" smooth="yes"/>
      <point x="73" y="93"/>
      <point x="167" y="-20"/>
    </contour>
  </outline>
</glyph>
<glyph name="D" format="1">
  <advance width="600"/>
  <unicode hex="0044"/>
  <outline>
    <contour>
      <point x="40" y="700" type="curve"/>
      <point x="40" y="684" type="line" smooth="yes"/>
      <point x="40" y="655"/>
      <point x="44" y="628"/>
      <point x="56" y="616" type="curve" smooth="yes"/>
      <point x="61" y="611"/>
      <point x="65" y="610"/>
      <point x="71" y="610" type="curve" smooth="yes"/>
      <point x="79" y="610"/>
      <point x="89" y="611"/>
      <point x="108" y="615" type="curve" smooth="yes"/>
      <point x="151" y="624"/>
      <point x="212" y="630"/>
      <point x="284" y="630" type="curve" smooth="yes"/>
      <point x="366" y="630"/>
      <point x="408" y="614"/>
      <point x="462" y="569" type="curve"/>
      <point x="477" y="584"/>
      <point x="479" y="633"/>
      <point x="458" y="653" type="curve" smooth="yes"/>
      <point x="408" y="703"/>
      <point x="358" y="720"/>
      <point x="275" y="720" type="curve" smooth="yes"/>
      <point x="196" y="720"/>
      <point x="127" y="714"/>
    </contour>
    <contour>
      <point x="184" y="21" type="curve"/>
      <point x="184" y="198"/>
      <point x="184" y="470"/>
      <point x="184" y="646" type="curve" smooth="yes"/>
      <point x="184" y="652"/>
      <point x="182" y="656"/>
      <point x="178" y="660" type="curve" smooth="yes"/>
      <point x="167" y="671"/>
      <point x="135" y="678"/>
      <point x="106" y="678" type="curve" smooth="yes"/>
      <point x="90" y="678" type="line"/>
      <point x="90" y="549"/>
      <point x="90" y="336"/>
      <point x="90" y="207" type="curve" smooth="yes"/>
      <point x="90" y="159"/>
      <point x="90" y="110"/>
      <point x="90" y="61" type="curve" smooth="yes"/>
      <point x="90" y="39"/>
      <point x="133" y="21"/>
    </contour>
    <contour>
      <point x="531" y="314" type="curve" smooth="yes"/>
      <point x="531" y="418" type="line" smooth="yes"/>
      <point x="531" y="499"/>
      <point x="521" y="590"/>
      <point x="458" y="653" type="curve" smooth="yes"/>
      <point x="433" y="679"/>
      <point x="387" y="682"/>
      <point x="360" y="657" type="curve"/>
      <point x="426" y="607"/>
      <point x="441" y="532"/>
      <point x="441" y="406" type="curve" smooth="yes"/>
      <point x="441" y="316" type="line" smooth="yes"/>
      <point x="441" y="175"/>
      <point x="363" y="82"/>
      <point x="234" y="82" type="curve" smooth="yes"/>
      <point x="180" y="82"/>
      <point x="149" y="90"/>
      <point x="103" y="110" type="curve"/>
      <point x="94" y="99"/>
      <point x="90" y="81"/>
      <point x="90" y="61" type="curve" smooth="yes"/>
      <point x="90" y="27"/>
      <point x="159" y="-10"/>
      <point x="245" y="-10" type="curve" smooth="yes"/>
      <point x="406" y="-10"/>
      <point x="531" y="116"/>
    </contour>
  </outline>
</glyph>
<glyph name="E" format="1">
  <advance width="600"/>
  <unicode hex="0045"/>
  <outline>
    <contour>
      <point x="40" y="700" type="curve"/>
      <point x="40" y="684" type="line" smooth="yes"/>
      <point x="40" y="655"/>
      <point x="44" y="628"/>
      <point x="56" y="616" type="curve" smooth="yes"/>
      <point x="60" y="612"/>
      <point x="64" y="610"/>
      <point x="70" y="610" type="curve"/>
      <point x="132" y="610"/>
      <point x="187" y="610"/>
      <point x="249" y="610" type="curve" smooth="yes"/>
      <point x="344" y="610"/>
      <point x="443" y="610"/>
      <point x="538" y="610" type="curve"/>
      <point x="538" y="626" type="line" smooth="yes"/>
      <point x="538" y="646"/>
      <point x="527" y="675"/>
      <point x="508" y="694" type="curve" smooth="yes"/>
      <point x="504" y="698"/>
      <point x="500" y="700"/>
      <point x="494" y="700" type="curve" smooth="yes"/>
      <point x="340" y="700"/>
      <point x="194" y="700"/>
    </contour>
    <contour>
      <point x="184" y="44" type="line"/>
      <point x="184" y="223"/>
      <point x="184" y="461"/>
      <point x="184" y="640" type="curve" smooth="yes"/>
      <point x="184" y="646"/>
      <point x="182" y="650"/>
      <point x="178" y="654" type="curve" smooth="yes"/>
      <point x="167" y="665"/>
      <point x="135" y="672"/>
      <point x="106" y="672" type="curve" smooth="yes"/>
      <point x="90" y="672" type="line"/>
      <point x="90" y="570"/>
      <point x="90" y="369"/>
      <point x="90" y="267" type="curve" smooth="yes"/>
      <point x="90" y="193"/>
      <point x="90" y="154"/>
      <point x="90" y="80" type="curve" smooth="yes"/>
      <point x="90" y="74"/>
      <point x="92" y="70"/>
      <point x="96" y="66" type="curve" smooth="yes"/>
      <point x="111" y="51"/>
      <point x="139" y="44"/>
      <point x="168" y="44" type="curve" smooth="yes"/>
    </contour>
    <contour>
      <point x="130" y="370" type="curve"/>
      <point x="130" y="354" type="line" smooth="yes"/>
      <point x="130" y="325"/>
      <point x="137" y="309"/>
      <point x="152" y="294" type="curve" smooth="yes"/>
      <point x="156" y="290"/>
      <point x="160" y="288"/>
      <point x="166" y="288" type="curve"/>
      <point x="212" y="288"/>
      <point x="211" y="288"/>
      <point x="257" y="288" type="curve" smooth="yes"/>
      <point x="332" y="288"/>
      <point x="395" y="288"/>
      <point x="470" y="288" type="curve"/>
      <point x="470" y="304" type="line" smooth="yes"/>
      <point x="470" y="324"/>
      <point x="463" y="345"/>
      <point x="444" y="364" type="curve" smooth="yes"/>
      <point x="440" y="368"/>
      <point x="436" y="370"/>
      <point x="430" y="370" type="curve" smooth="yes"/>
      <point x="311" y="370"/>
      <point x="249" y="370"/>
    </contour>
    <contour>
      <point x="90" y="90" type="curve"/>
      <point x="90" y="74" type="line" smooth="yes"/>
      <point x="90" y="45"/>
      <point x="97" y="21"/>
      <point x="112" y="6" type="curve" smooth="yes"/>
      <point x="116" y="2"/>
      <point x="120" y="0"/>
      <point x="126" y="0" type="curve"/>
      <point x="176" y="0"/>
      <point x="179" y="0"/>
      <point x="229" y="0" type="curve" smooth="yes"/>
      <point x="323" y="0"/>
      <point x="444" y="0"/>
      <point x="538" y="0" type="curve"/>
      <point x="538" y="16" type="line" smooth="yes"/>
      <point x="538" y="36"/>
      <point x="527" y="65"/>
      <point x="508" y="84" type="curve" smooth="yes"/>
      <point x="504" y="88"/>
      <point x="500" y="90"/>
      <point x="494" y="90" type="curve" smooth="yes"/>
      <point x="353" y="90"/>
      <point x="231" y="90"/>
    </contour>
  </outline>
</glyph>
<glyph name="F" format="1">
  <advance width="600"/>
  <unicode hex="0046"/>
  <outline>
    <contour>
      <point x="184" y="-10" type="line"/>
      <point x="184" y="173"/>
      <point x="184" y="458"/>
      <point x="184" y="640" type="curve" smooth="yes"/>
      <point x="184" y="646"/>
      <point x="182" y="650"/>
      <point x="178" y="654" type="curve" smooth="yes"/>
      <point x="167" y="665"/>
      <point x="135" y="672"/>
      <point x="106" y="672" type="curve" smooth="yes"/>
      <point x="90" y="672" type="line"/>
      <point x="90" y="570"/>
      <point x="90" y="369"/>
      <point x="90" y="267" type="curve" smooth="yes"/>
      <point x="90" y="187"/>
      <point x="90" y="106"/>
      <point x="90" y="26" type="curve" smooth="yes"/>
      <point x="90" y="20"/>
      <point x="92" y="16"/>
      <point x="96" y="12" type="curve" smooth="yes"/>
      <point x="111" y="-3"/>
      <point x="139" y="-10"/>
      <point x="168" y="-10" type="curve" smooth="yes"/>
    </contour>
    <contour>
      <point x="40" y="700" type="curve"/>
      <point x="40" y="684" type="line" smooth="yes"/>
      <point x="40" y="655"/>
      <point x="44" y="628"/>
      <point x="56" y="616" type="curve" smooth="yes"/>
      <point x="60" y="612"/>
      <point x="64" y="610"/>
      <point x="70" y="610" type="curve"/>
      <point x="132" y="610"/>
      <point x="187" y="610"/>
      <point x="249" y="610" type="curve" smooth="yes"/>
      <point x="344" y="610"/>
      <point x="443" y="610"/>
      <point x="538" y="610" type="curve"/>
      <point x="538" y="626" type="line" smooth="yes"/>
      <point x="538" y="646"/>
      <point x="527" y="675"/>
      <point x="508" y="694" type="curve" smooth="yes"/>
      <point x="504" y="698"/>
      <point x="500" y="700"/>
      <point x="494" y="700" type="curve" smooth="yes"/>
      <point x="340" y="700"/>
      <point x="194" y="700"/>
    </contour>
    <contour>
      <point x="118" y="320" type="curve"/>
      <point x="118" y="304" type="line" smooth="yes"/>
      <point x="118" y="275"/>
      <point x="125" y="251"/>
      <point x="140" y="236" type="curve" smooth="yes"/>
      <point x="144" y="232"/>
      <point x="148" y="230"/>
      <point x="154" y="230" type="curve"/>
      <point x="200" y="230"/>
      <point x="199" y="230"/>
      <point x="245" y="230" type="curve" smooth="yes"/>
      <point x="330" y="230"/>
      <point x="409" y="230"/>
      <point x="494" y="230" type="curve"/>
      <point x="494" y="246" type="line" smooth="yes"/>
      <point x="494" y="266"/>
      <point x="483" y="295"/>
      <point x="464" y="314" type="curve" smooth="yes"/>
      <point x="460" y="318"/>
      <point x="456" y="320"/>
      <point x="450" y="320" type="curve" smooth="yes"/>
      <point x="322" y="320"/>
      <point x="247" y="320"/>
    </contour>
  </outline>
</glyph>
<glyph name="G" format="1">
  <advance width="600"/>
  <unicode hex="0047"/>
  <outline>
    <contour>
      <point x="525" y="466" type="line"/>
      <point x="525" y="579" type="line" smooth="yes"/>
      <point x="525" y="612"/>
      <point x="512" y="645"/>
      <point x="484" y="674" type="curve" smooth="yes"/>
      <point x="457" y="701"/>
      <point x="426" y="696"/>
      <point x="413" y="670" type="curve"/>
      <point x="425" y="652"/>
      <point x="435" y="622"/>
      <point x="435" y="597" type="curve" smooth="yes"/>
      <point x="435" y="502" type="line" smooth="yes"/>
      <point x="435" y="496"/>
      <point x="437" y="493"/>
      <point x="441" y="488" type="curve" smooth="yes"/>
      <point x="456" y="473"/>
      <point x="479" y="466"/>
      <point x="509" y="466" type="curve" smooth="yes"/>
    </contour>
    <contour>
      <point x="382" y="720" type="curve" smooth="yes"/>
      <point x="220" y="720"/>
      <point x="73" y="600"/>
      <point x="73" y="350" type="curve" smooth="yes"/>
      <point x="73" y="234" type="line" smooth="yes"/>
      <point x="73" y="183"/>
      <point x="122" y="122"/>
      <point x="180" y="112" type="curve"/>
      <point x="167" y="153"/>
      <point x="163" y="197"/>
      <point x="163" y="231" type="curve" smooth="yes"/>
      <point x="163" y="346" type="line" smooth="yes"/>
      <point x="163" y="546"/>
      <point x="278" y="634"/>
      <point x="382" y="634" type="curve" smooth="yes"/>
      <point x="419" y="634"/>
      <point x="444" y="624"/>
      <point x="469" y="607" type="curve"/>
      <point x="498" y="624"/>
      <point x="506" y="651"/>
      <point x="484" y="674" type="curve"/>
      <point x="457" y="700"/>
      <point x="427" y="720"/>
    </contour>
    <contour>
      <point x="325" y="-20" type="curve" smooth="yes"/>
      <point x="443" y="-20"/>
      <point x="532" y="56"/>
      <point x="532" y="182" type="curve" smooth="yes"/>
      <point x="532" y="220"/>
      <point x="513" y="249"/>
      <point x="492" y="269" type="curve" smooth="yes"/>
      <point x="485" y="276"/>
      <point x="471" y="282"/>
      <point x="458" y="282" type="curve"/>
      <point x="463" y="264"/>
      <point x="465" y="247"/>
      <point x="465" y="229" type="curve" smooth="yes"/>
      <point x="465" y="112"/>
      <point x="399" y="70"/>
      <point x="325" y="70" type="curve" smooth="yes"/>
      <point x="199" y="70"/>
      <point x="151" y="156"/>
      <point x="151" y="290" type="curve"/>
      <point x="107" y="290"/>
      <point x="73" y="304"/>
      <point x="73" y="283" type="curve" smooth="yes"/>
      <point x="73" y="234" type="line" smooth="yes"/>
      <point x="73" y="93"/>
      <point x="167" y="-20"/>
    </contour>
    <contour>
      <point x="304" y="322" type="curve"/>
      <point x="304" y="306" type="line" smooth="yes"/>
      <point x="304" y="277"/>
      <point x="311" y="261"/>
      <point x="326" y="246" type="curve" smooth="yes"/>
      <point x="330" y="242"/>
      <point x="334" y="240"/>
      <point x="340" y="240" type="curve"/>
      <point x="386" y="240"/>
      <point x="355" y="240"/>
      <point x="401" y="240" type="curve" smooth="yes"/>
      <point x="464" y="240"/>
      <point x="511" y="240"/>
      <point x="574" y="240" type="curve"/>
      <point x="574" y="256" type="line" smooth="yes"/>
      <point x="574" y="276"/>
      <point x="567" y="297"/>
      <point x="548" y="316" type="curve" smooth="yes"/>
      <point x="544" y="320"/>
      <point x="540" y="322"/>
      <point x="534" y="322" type="curve" smooth="yes"/>
      <point x="431" y="322"/>
      <point x="407" y="322"/>
    </contour>
  </outline>
</glyph>
<glyph name="H" format="1">
  <advance width="600"/>
  <unicode hex="0048"/>
  <outline>
    <contour>
      <point x="184" y="-10" type="line"/>
      <point x="184" y="177"/>
      <point x="184" y="492"/>
      <point x="184" y="678" type="curve" smooth="yes"/>
      <point x="184" y="684"/>
      <point x="182" y="688"/>
      <point x="178" y="692" type="curve" smooth="yes"/>
      <point x="167" y="703"/>
      <point x="135" y="710"/>
      <point x="106" y="710" type="curve" smooth="yes"/>
      <point x="90" y="710" type="line"/>
      <point x="90" y="605"/>
      <point x="90" y="372"/>
      <point x="90" y="267" type="curve" smooth="yes"/>
      <point x="90" y="187"/>
      <point x="90" y="106"/>
      <point x="90" y="26" type="curve" smooth="yes"/>
      <point x="90" y="20"/>
      <point x="92" y="16"/>
      <point x="96" y="12" type="curve" smooth="yes"/>
      <point x="111" y="-3"/>
      <point x="139" y="-10"/>
      <point x="168" y="-10" type="curve" smooth="yes"/>
    </contour>
    <contour>
      <point x="514" y="-10" type="line"/>
      <point x="514" y="177"/>
      <point x="514" y="491"/>
      <point x="514" y="678" type="curve" smooth="yes"/>
      <point x="514" y="684"/>
      <point x="512" y="688"/>
      <point x="508" y="692" type="curve" smooth="yes"/>
      <point x="497" y="703"/>
      <point x="465" y="710"/>
      <point x="436" y="710" type="curve" smooth="yes"/>
      <point x="420" y="710" type="line"/>
      <point x="420" y="604"/>
      <point x="420" y="373"/>
      <point x="420" y="267" type="curve" smooth="yes"/>
      <point x="420" y="187"/>
      <point x="420" y="106"/>
      <point x="420" y="26" type="curve" smooth="yes"/>
      <point x="420" y="20"/>
      <point x="422" y="16"/>
      <point x="426" y="12" type="curve" smooth="yes"/>
      <point x="441" y="-3"/>
      <point x="469" y="-10"/>
      <point x="498" y="-10" type="curve" smooth="yes"/>
    </contour>
    <contour>
      <point x="40" y="340" type="curve"/>
      <point x="40" y="324" type="line" smooth="yes"/>
      <point x="40" y="295"/>
      <point x="47" y="271"/>
      <point x="62" y="256" type="curve" smooth="yes"/>
      <point x="66" y="252"/>
      <point x="70" y="250"/>
      <point x="76" y="250" type="curve"/>
      <point x="138" y="250"/>
      <point x="187" y="250"/>
      <point x="249" y="250" type="curve"/>
      <point x="332" y="250"/>
      <point x="405" y="250"/>
      <point x="488" y="250" type="curve"/>
      <point x="488" y="266" type="line" smooth="yes"/>
      <point x="488" y="286"/>
      <point x="477" y="315"/>
      <point x="458" y="334" type="curve" smooth="yes"/>
      <point x="454" y="338"/>
      <point x="450" y="340"/>
      <point x="444" y="340" type="curve" smooth="yes"/>
      <point x="302" y="340"/>
      <point x="182" y="340"/>
    </contour>
  </outline>
</glyph>
<glyph name="I" format="1">
  <advance width="600"/>
  <unicode hex="0049"/>
  <outline>
    <contour>
      <point x="62" y="700" type="curve"/>
      <point x="62" y="684" type="line" smooth="yes"/>
      <point x="62" y="655"/>
      <point x="69" y="631"/>
      <point x="84" y="616" type="curve" smooth="yes"/>
      <point x="88" y="612"/>
      <point x="92" y="610"/>
      <point x="98" y="610" type="curve"/>
      <point x="155" y="610"/>
      <point x="191" y="610"/>
      <point x="249" y="610" type="curve"/>
      <point x="344" y="610"/>
      <point x="443" y="610"/>
      <point x="538" y="610" type="curve"/>
      <point x="538" y="626" type="line" smooth="yes"/>
      <point x="538" y="646"/>
      <point x="527" y="675"/>
      <point x="508" y="694" type="curve" smooth="yes"/>
      <point x="504" y="698"/>
      <point x="500" y="700"/>
      <point x="494" y="700" type="curve" smooth="yes"/>
      <point x="344" y="700"/>
      <point x="212" y="700"/>
    </contour>
    <contour>
      <point x="345" y="28" type="line"/>
      <point x="345" y="206"/>
      <point x="345" y="462"/>
      <point x="345" y="640" type="curve" smooth="yes"/>
      <point x="345" y="646"/>
      <point x="343" y="650"/>
      <point x="339" y="654" type="curve" smooth="yes"/>
      <point x="328" y="665"/>
      <point x="296" y="672"/>
      <point x="267" y="672" type="curve" smooth="yes"/>
      <point x="251" y="672" type="line"/>
      <point x="251" y="570"/>
      <point x="251" y="369"/>
      <point x="251" y="267" type="curve" smooth="yes"/>
      <point x="251" y="193"/>
      <point x="251" y="138"/>
      <point x="251" y="64" type="curve" smooth="yes"/>
      <point x="251" y="58"/>
      <point x="253" y="54"/>
      <point x="257" y="50" type="curve" smooth="yes"/>
      <point x="272" y="35"/>
      <point x="300" y="28"/>
      <point x="329" y="28" type="curve" smooth="yes"/>
    </contour>
    <contour>
      <point x="62" y="90" type="curve"/>
      <point x="62" y="74" type="line" smooth="yes"/>
      <point x="62" y="45"/>
      <point x="69" y="21"/>
      <point x="84" y="6" type="curve" smooth="yes"/>
      <point x="88" y="2"/>
      <point x="92" y="0"/>
      <point x="98" y="0" type="curve"/>
      <point x="155" y="0"/>
      <point x="191" y="0"/>
      <point x="249" y="0" type="curve"/>
      <point x="344" y="0"/>
      <point x="443" y="0"/>
      <point x="538" y="0" type="curve"/>
      <point x="538" y="16" type="line" smooth="yes"/>
      <point x="538" y="36"/>
      <point x="527" y="65"/>
      <point x="508" y="84" type="curve" smooth="yes"/>
      <point x="504" y="88"/>
      <point x="500" y="90"/>
      <point x="494" y="90" type="curve" smooth="yes"/>
      <point x="344" y="90"/>
      <point x="212" y="90"/>
    </contour>
  </outline>
</glyph>
<glyph name="L" format="1">
  <advance width="600"/>
  <unicode hex="004C"/>
  <outline>
    <contour>
      <point x="180" y="44" type="line"/>
      <point x="180" y="227"/>
      <point x="180" y="495"/>
      <point x="180" y="678" type="curve" smooth="yes"/>
      <point x="180" y="684"/>
      <point x="178" y="688"/>
      <point x="174" y="692" type="curve" smooth="yes"/>
      <point x="163" y="703"/>
      <point x="131" y="710"/>
      <point x="102" y="710" type="curve" smooth="yes"/>
      <point x="86" y="710" type="line"/>
      <point x="86" y="605"/>
      <point x="86" y="372"/>
      <point x="86" y="267" type="curve" smooth="yes"/>
      <point x="86" y="193"/>
      <point x="86" y="154"/>
      <point x="86" y="80" type="curve" smooth="yes"/>
      <point x="86" y="74"/>
      <point x="88" y="70"/>
      <point x="92" y="66" type="curve" smooth="yes"/>
      <point x="107" y="51"/>
      <point x="135" y="44"/>
      <point x="164" y="44" type="curve" smooth="yes"/>
    </contour>
    <contour>
      <point x="86" y="90" type="curve"/>
      <point x="86" y="74" type="line" smooth="yes"/>
      <point x="86" y="45"/>
      <point x="93" y="21"/>
      <point x="108" y="6" type="curve" smooth="yes"/>
      <point x="112" y="2"/>
      <point x="116" y="0"/>
      <point x="122" y="0" type="curve"/>
      <point x="172" y="0"/>
      <point x="175" y="0"/>
      <point x="225" y="0" type="curve" smooth="yes"/>
      <point x="321" y="0"/>
      <point x="450" y="0"/>
      <point x="546" y="0" type="curve"/>
      <point x="546" y="16" type="line" smooth="yes"/>
      <point x="546" y="36"/>
      <point x="535" y="65"/>
      <point x="516" y="84" type="curve" smooth="yes"/>
      <point x="512" y="88"/>
      <point x="508" y="90"/>
      <point x="502" y="90" type="curve" smooth="yes"/>
      <point x="357" y="90"/>
      <point x="231" y="90"/>
    </contour>
  </outline>
</glyph>
<glyph name="P" format="1">
  <advance width="600"/>
  <unicode hex="0050"/>
  <outline>
    <contour>
      <point x="40" y="700" type="curve"/>
      <point x="40" y="684" type="line" smooth="yes"/>
      <point x="40" y="655"/>
      <point x="44" y="628"/>
      <point x="56" y="616" type="curve" smooth="yes"/>
      <point x="61" y="611"/>
      <point x="65" y="610"/>
      <point x="71" y="610" type="curve" smooth="yes"/>
      <point x="79" y="610"/>
      <point x="89" y="611"/>
      <point x="108" y="615" type="curve" smooth="yes"/>
      <point x="156" y="624"/>
      <point x="224" y="630"/>
      <point x="304" y="630" type="curve" smooth="yes"/>
      <point x="382" y="630"/>
      <point x="423" y="616"/>
      <point x="473" y="576" type="curve"/>
      <point x="491" y="594"/>
      <point x="492" y="634"/>
      <point x="472" y="653" type="curve" smooth="yes"/>
      <point x="423" y="702"/>
      <point x="375" y="720"/>
      <point x="295" y="720" type="curve" smooth="yes"/>
      <point x="210" y="720"/>
      <point x="134" y="715"/>
    </contour>
    <contour>
      <point x="184" y="-10" type="line"/>
      <point x="184" y="177"/>
      <point x="184" y="460"/>
      <point x="184" y="646" type="curve" smooth="yes"/>
      <point x="184" y="652"/>
      <point x="182" y="656"/>
      <point x="178" y="660" type="curve" smooth="yes"/>
      <point x="167" y="671"/>
      <point x="135" y="678"/>
      <point x="106" y="678" type="curve" smooth="yes"/>
      <point x="90" y="678" type="line"/>
      <point x="90" y="549"/>
      <point x="90" y="336"/>
      <point x="90" y="207" type="curve" smooth="yes"/>
      <point x="90" y="147"/>
      <point x="90" y="86"/>
      <point x="90" y="26" type="curve" smooth="yes"/>
      <point x="90" y="20"/>
      <point x="92" y="16"/>
      <point x="96" y="12" type="curve" smooth="yes"/>
      <point x="111" y="-3"/>
      <point x="139" y="-10"/>
      <point x="168" y="-10" type="curve" smooth="yes"/>
    </contour>
    <contour>
      <point x="531" y="463" type="curve" smooth="yes"/>
      <point x="531" y="524" type="line" smooth="yes"/>
      <point x="531" y="569"/>
      <point x="512" y="614"/>
      <point x="472" y="653" type="curve" smooth="yes"/>
      <point x="446" y="678"/>
      <point x="402" y="678"/>
      <point x="379" y="657" type="curve"/>
      <point x="422" y="624"/>
      <point x="441" y="585"/>
      <point x="441" y="512" type="curve" smooth="yes"/>
      <point x="441" y="465" type="line" smooth="yes"/>
      <point x="441" y="344"/>
      <point x="345" y="261"/>
      <point x="214" y="261" type="curve" smooth="yes"/>
      <point x="196" y="261"/>
      <point x="185" y="262"/>
      <point x="170" y="265" type="curve"/>
      <point x="165" y="260"/>
      <point x="162" y="251"/>
      <point x="162" y="242" type="curve" smooth="yes"/>
      <point x="162" y="210"/>
      <point x="207" y="169"/>
      <point x="246" y="169" type="curve" smooth="yes"/>
      <point x="398" y="169"/>
      <point x="531" y="285"/>
    </contour>
  </outline>
</glyph>
<glyph name="R" format="1">
  <advance width="600"/>
  <unicode hex="0052"/>
  <outline>
    <contour>
      <point x="40" y="700" type="curve"/>
      <point x="40" y="684" type="line" smooth="yes"/>
      <point x="40" y="655"/>
      <point x="44" y="628"/>
      <point x="56" y="616" type="curve" smooth="yes"/>
      <point x="61" y="611"/>
      <point x="65" y="610"/>
      <point x="71" y="610" type="curve" smooth="yes"/>
      <point x="79" y="610"/>
      <point x="89" y="611"/>
      <point x="108" y="615" type="curve" smooth="yes"/>
      <point x="156" y="625"/>
      <point x="223" y="630"/>
      <point x="304" y="630" type="curve" smooth="yes"/>
      <point x="382" y="630"/>
      <point x="423" y="616"/>
      <point x="473" y="576" type="curve"/>
      <point x="491" y="594"/>
      <point x="492" y="634"/>
      <point x="472" y="653" type="curve" smooth="yes"/>
      <point x="423" y="702"/>
      <point x="375" y="720"/>
      <point x="295" y="720" type="curve" smooth="yes"/>
      <point x="210" y="720"/>
      <point x="134" y="715"/>
    </contour>
    <contour>
      <point x="184" y="-10" type="line"/>
      <point x="184" y="177"/>
      <point x="184" y="460"/>
      <point x="184" y="646" type="curve" smooth="yes"/>
      <point x="184" y="652"/>
      <point x="182" y="656"/>
      <point x="178" y="660" type="curve" smooth="yes"/>
      <point x="167" y="671"/>
      <point x="135" y="678"/>
      <point x="106" y="678" type="curve" smooth="yes"/>
      <point x="90" y="678" type="line"/>
      <point x="90" y="549"/>
      <point x="90" y="336"/>
      <point x="90" y="207" type="curve" smooth="yes"/>
      <point x="90" y="147"/>
      <point x="90" y="86"/>
      <point x="90" y="26" type="curve" smooth="yes"/>
      <point x="90" y="20"/>
      <point x="92" y="16"/>
      <point x="96" y="12" type="curve" smooth="yes"/>
      <point x="111" y="-3"/>
      <point x="139" y="-10"/>
      <point x="168" y="-10" type="curve" smooth="yes"/>
    </contour>
    <contour>
      <point x="531" y="482" type="curve" smooth="yes"/>
      <point x="531" y="524" type="line" smooth="yes"/>
      <point x="531" y="569"/>
      <point x="512" y="614"/>
      <point x="472" y="653" type="curve" smooth="yes"/>
      <point x="446" y="678"/>
      <point x="402" y="678"/>
      <point x="379" y="657" type="curve"/>
      <point x="422" y="624"/>
      <point x="441" y="585"/>
      <point x="441" y="512" type="curve" smooth="yes"/>
      <point x="441" y="484" type="line" smooth="yes"/>
      <point x="441" y="357"/>
      <point x="340" y="270"/>
      <point x="202" y="270" type="curve" smooth="yes"/>
      <point x="183" y="270"/>
      <point x="174" y="272"/>
      <point x="160" y="277" type="curve"/>
      <point x="153" y="271"/>
      <point x="150" y="262"/>
      <point x="150" y="251" type="curve" smooth="yes"/>
      <point x="150" y="221"/>
      <point x="188" y="190"/>
      <point x="224" y="190" type="curve" smooth="yes"/>
      <point x="389" y="190"/>
      <point x="531" y="311"/>
    </contour>
    <contour>
      <point x="332" y="277" type="line"/>
      <point x="281" y="247"/>
      <point x="259" y="222"/>
      <point x="270" y="207" type="curve" smooth="yes"/>
      <point x="379" y="60" type="line" smooth="yes"/>
      <point x="421" y="3"/>
      <point x="456" y="-20"/>
      <point x="502" y="-20" type="curve" smooth="yes"/>
      <point x="537" y="-20"/>
      <point x="558" y="-4"/>
      <point x="558" y="25" type="curve" smooth="yes"/>
      <point x="558" y="90" type="line"/>
      <point x="546" y="90" type="line"/>
      <point x="539" y="83"/>
      <point x="526" y="78"/>
      <point x="516" y="78" type="curve" smooth="yes"/>
      <point x="486" y="78"/>
      <point x="464" y="92"/>
      <point x="442" y="125" type="curve" smooth="yes"/>
    </contour>
  </outline>
</glyph>
<glyph name="S" format="1">
  <advance width="600"/>
  <unicode hex="0053"/>
  <outline>
    <contour>
      <point x="378" y="309" type="curve" smooth="yes"/>
      <point x="289" y="342" type="line" smooth="yes"/>
      <point x="185" y="379"/>
      <point x="170" y="405"/>
      <point x="170" y="444" type="curve" smooth="yes"/>
      <point x="170" y="463"/>
      <point x="172" y="486"/>
      <point x="179" y="515" type="curve"/>
      <point x="128" y="509"/>
      <point x="82" y="486"/>
      <point x="82" y="429" type="curve" smooth="yes"/>
      <point x="82" y="365"/>
      <point x="121" y="323"/>
      <point x="263" y="270" type="curve" smooth="yes"/>
      <point x="352" y="237" type="line" smooth="yes"/>
      <point x="455" y="199"/>
      <point x="472" y="165"/>
      <point x="473" y="103" type="curve"/>
      <point x="499" y="103"/>
      <point x="534" y="133"/>
      <point x="534" y="163" type="curve"/>
      <point x="534" y="218"/>
      <point x="492" y="268"/>
    </contour>
    <contour>
      <point x="300" y="-20" type="curve" smooth="yes"/>
      <point x="444" y="-20"/>
      <point x="534" y="39"/>
      <point x="534" y="122" type="curve" smooth="yes"/>
      <point x="534" y="163" type="line" smooth="yes"/>
      <point x="534" y="177"/>
      <point x="509" y="184"/>
      <point x="480" y="184" type="curve"/>
      <point x="470" y="106"/>
      <point x="413" y="70"/>
      <point x="300" y="70" type="curve" smooth="yes"/>
      <point x="201" y="70"/>
      <point x="135" y="102"/>
      <point x="83" y="164" type="curve"/>
      <point x="66" y="164" type="line"/>
      <point x="66" y="149"/>
      <point x="66" y="123"/>
      <point x="66" y="90" type="curve" smooth="yes"/>
      <point x="66" y="39"/>
      <point x="166" y="-20"/>
    </contour>
    <contour>
      <point x="390" y="720" type="curve" smooth="yes"/>
      <point x="258" y="720"/>
      <point x="82" y="571"/>
      <point x="82" y="465" type="curve" smooth="yes"/>
      <point x="82" y="429" type="line" smooth="yes"/>
      <point x="82" y="401"/>
      <point x="130" y="378"/>
      <point x="175" y="374" type="curve"/>
      <point x="170" y="398"/>
      <point x="170" y="421"/>
      <point x="170" y="444" type="curve" smooth="yes"/>
      <point x="170" y="522"/>
      <point x="302" y="636"/>
      <point x="391" y="636" type="curve" smooth="yes"/>
      <point x="415" y="636"/>
      <point x="437" y="633"/>
      <point x="461" y="619" type="curve"/>
      <point x="492" y="637"/>
      <point x="501" y="661"/>
      <point x="478" y="685" type="curve"/>
      <point x="455" y="708"/>
      <point x="422" y="720"/>
    </contour>
    <contour>
      <point x="510" y="450" type="line"/>
      <point x="510" y="602" type="line" smooth="yes"/>
      <point x="510" y="634"/>
      <point x="502" y="660"/>
      <point x="478" y="685" type="curve" smooth="yes"/>
      <point x="453" y="709"/>
      <point x="419" y="708"/>
      <point x="405" y="681" type="curve"/>
      <point x="417" y="662"/>
      <point x="420" y="640"/>
      <point x="420" y="615" type="curve" smooth="yes"/>
      <point x="420" y="486" type="line" smooth="yes"/>
      <point x="420" y="480"/>
      <point x="422" y="476"/>
      <point x="426" y="472" type="curve" smooth="yes"/>
      <point x="441" y="457"/>
      <point x="464" y="450"/>
      <point x="494" y="450" type="curve" smooth="yes"/>
    </contour>
  </outline>
</glyph>
<glyph name="T" format="1">
  <advance width="600"/>
  <unicode hex="0054"/>
  <outline>
    <contour>
      <point x="342" y="-12" type="line"/>
      <point x="342" y="164"/>
      <point x="342" y="469"/>
      <point x="342" y="644" type="curve" smooth="yes"/>
      <point x="342" y="650"/>
      <point x="340" y="654"/>
      <point x="336" y="658" type="curve" smooth="yes"/>
      <point x="326" y="668"/>
      <point x="299" y="674"/>
      <point x="273" y="674" type="curve" smooth="yes"/>
      <point x="259" y="674" type="line"/>
      <point x="259" y="573"/>
      <point x="259" y="333"/>
      <point x="259" y="232" type="curve" smooth="yes"/>
      <point x="259" y="157"/>
      <point x="259" y="95"/>
      <point x="259" y="21" type="curve" smooth="yes"/>
      <point x="259" y="15"/>
      <point x="261" y="12"/>
      <point x="264" y="8" type="curve" smooth="yes"/>
      <point x="278" y="-6"/>
      <point x="301" y="-12"/>
      <point x="327" y="-12" type="curve" smooth="yes"/>
    </contour>
    <contour>
      <point x="44" y="700" type="curve"/>
      <point x="44" y="686" type="line" smooth="yes"/>
      <point x="44" y="660"/>
      <point x="50" y="639"/>
      <point x="63" y="626" type="curve" smooth="yes"/>
      <point x="67" y="622"/>
      <point x="71" y="620"/>
      <point x="77" y="620" type="curve"/>
      <point x="141" y="620"/>
      <point x="171" y="620"/>
      <point x="235" y="620" type="curve"/>
      <point x="338" y="620"/>
      <point x="453" y="620"/>
      <point x="556" y="620" type="curve"/>
      <point x="556" y="635" type="line" smooth="yes"/>
      <point x="556" y="653"/>
      <point x="547" y="678"/>
      <point x="531" y="694" type="curve" smooth="yes"/>
      <point x="527" y="698"/>
      <point x="523" y="700"/>
      <point x="517" y="700" type="curve" smooth="yes"/>
      <point x="351" y="700"/>
      <point x="210" y="700"/>
    </contour>
  </outline>
</glyph>
<glyph name="a" format="1">
  <advance width="600"/>
  <unicode hex="0061"/>
  <outline>
    <contour>
      <point x="246" y="540" type="curve" smooth="yes"/>
      <point x="186" y="540"/>
      <point x="126" y="527"/>
      <point x="114" y="514" type="curve" smooth="yes"/>
      <point x="107" y="507"/>
      <point x="105" y="501"/>
      <point x="105" y="491" type="curve"/>
      <point x="105" y="430" type="line"/>
      <point x="119" y="430" type="line"/>
      <point x="163" y="444"/>
      <point x="225" y="454"/>
      <point x="276" y="454" type="curve" smooth="yes"/>
      <point x="345" y="454"/>
      <point x="380" y="446"/>
      <point x="436" y="425" type="curve"/>
      <point x="450" y="445"/>
      <point x="452" y="466"/>
      <point x="418" y="500" type="curve"/>
      <point x="388" y="530"/>
      <point x="336" y="540"/>
    </contour>
    <contour>
      <point x="368" y="498" type="curve"/>
      <point x="392" y="423"/>
      <point x="391" y="377"/>
      <point x="387" y="309" type="curve" smooth="yes"/>
      <point x="387" y="233"/>
      <point x="387" y="184"/>
      <point x="387" y="123" type="curve" smooth="yes"/>
      <point x="387" y="75"/>
      <point x="395" y="55"/>
      <point x="418" y="31" type="curve"/>
      <point x="438" y="11"/>
      <point x="490" y="14"/>
      <point x="497" y="35" type="curve"/>
      <point x="483" y="58"/>
      <point x="479" y="76"/>
      <point x="479" y="108" type="curve" smooth="yes"/>
      <point x="479" y="193"/>
      <point x="479" y="238"/>
      <point x="479" y="350" type="curve" smooth="yes"/>
      <point x="479" y="407"/>
      <point x="461" y="455"/>
      <point x="418" y="500" type="curve"/>
      <point x="404" y="514"/>
      <point x="380" y="509"/>
    </contour>
    <contour>
      <point x="419" y="266" type="curve" smooth="yes"/>
      <point x="400" y="284"/>
      <point x="343" y="296"/>
      <point x="261" y="296" type="curve" smooth="yes"/>
      <point x="195" y="296"/>
      <point x="158" y="285"/>
      <point x="129" y="256" type="curve" smooth="yes"/>
      <point x="110" y="237"/>
      <point x="106" y="211"/>
      <point x="114" y="194" type="curve"/>
      <point x="153" y="222"/>
      <point x="188" y="228"/>
      <point x="244" y="228" type="curve" smooth="yes"/>
      <point x="306" y="228"/>
      <point x="382" y="226"/>
      <point x="434" y="219" type="curve"/>
      <point x="434" y="239"/>
      <point x="429" y="256"/>
    </contour>
    <contour>
      <point x="167" y="132" type="curve" smooth="yes"/>
      <point x="167" y="168" type="line" smooth="yes"/>
      <point x="167" y="231"/>
      <point x="174" y="246"/>
      <point x="205" y="273" type="curve"/>
      <point x="176" y="282"/>
      <point x="144" y="271"/>
      <point x="129" y="256" type="curve" smooth="yes"/>
      <point x="87" y="215"/>
      <point x="77" y="194"/>
      <point x="77" y="155" type="curve" smooth="yes"/>
      <point x="77" y="121" type="line" smooth="yes"/>
      <point x="77" y="27"/>
      <point x="122" y="-20"/>
      <point x="205" y="-20" type="curve" smooth="yes"/>
      <point x="292" y="-20"/>
      <point x="357" y="29"/>
      <point x="398" y="97" type="curve" smooth="yes"/>
      <point x="408" y="113"/>
      <point x="412" y="128"/>
      <point x="412" y="160" type="curve"/>
      <point x="352" y="93"/>
      <point x="303" y="67"/>
      <point x="244" y="67" type="curve" smooth="yes"/>
      <point x="222" y="67" type="line" smooth="yes"/>
      <point x="184" y="67"/>
      <point x="167" y="85"/>
    </contour>
    <contour>
      <point x="500" y="-10" type="curve" smooth="yes"/>
      <point x="539" y="-10"/>
      <point x="557" y="5"/>
      <point x="557" y="39" type="curve"/>
      <point x="557" y="90" type="line"/>
      <point x="541" y="90" type="line"/>
      <point x="528" y="89"/>
      <point x="518" y="84"/>
      <point x="502" y="84" type="curve" smooth="yes"/>
      <point x="477" y="84"/>
      <point x="452" y="86"/>
      <point x="422" y="92" type="curve"/>
      <point x="408" y="78"/>
      <point x="405" y="44"/>
      <point x="418" y="31" type="curve"/>
      <point x="440" y="10"/>
      <point x="471" y="-10"/>
    </contour>
  </outline>
</glyph>
<glyph name="b" format="1">
  <advance width="600"/>
  <unicode hex="0062"/>
  <outline>
    <contour>
      <point x="186" y="-10" type="line"/>
      <point x="186" y="206"/>
      <point x="186" y="532"/>
      <point x="186" y="728" type="curve" smooth="yes"/>
      <point x="186" y="734"/>
      <point x="184" y="738"/>
      <point x="180" y="742" type="curve" smooth="yes"/>
      <point x="169" y="753"/>
      <point x="137" y="760"/>
      <point x="108" y="760" type="curve" smooth="yes"/>
      <point x="92" y="760" type="line"/>
      <point x="92" y="617"/>
      <point x="92" y="524"/>
      <point x="92" y="381" type="curve" smooth="yes"/>
      <point x="92" y="303"/>
      <point x="92" y="104"/>
      <point x="92" y="26" type="curve" smooth="yes"/>
      <point x="92" y="20"/>
      <point x="94" y="16"/>
      <point x="98" y="12" type="curve" smooth="yes"/>
      <point x="113" y="-3"/>
      <point x="141" y="-10"/>
      <point x="170" y="-10" type="curve" smooth="yes"/>
    </contour>
    <contour>
      <point x="382" y="536" type="curve" smooth="yes"/>
      <point x="309" y="536"/>
      <point x="231" y="480"/>
      <point x="178" y="412" type="curve" smooth="yes"/>
      <point x="157" y="385"/>
      <point x="151" y="366"/>
      <point x="152" y="325" type="curve"/>
      <point x="245" y="415"/>
      <point x="301" y="442"/>
      <point x="377" y="442" type="curve" smooth="yes"/>
      <point x="434" y="442"/>
      <point x="473" y="393"/>
      <point x="492" y="318" type="curve"/>
      <point x="526" y="321"/>
      <point x="539" y="336"/>
      <point x="539" y="350" type="curve" smooth="yes"/>
      <point x="539" y="451"/>
      <point x="460" y="536"/>
    </contour>
    <contour>
      <point x="324" y="-20" type="curve" smooth="yes"/>
      <point x="465" y="-20"/>
      <point x="539" y="113"/>
      <point x="539" y="313" type="curve" smooth="yes"/>
      <point x="539" y="350" type="line" smooth="yes"/>
      <point x="539" y="397"/>
      <point x="499" y="467"/>
      <point x="458" y="467" type="curve"/>
      <point x="433" y="467"/>
      <point x="414" y="461"/>
      <point x="413" y="445" type="curve"/>
      <point x="433" y="411"/>
      <point x="443" y="385"/>
      <point x="443" y="336" type="curve" smooth="yes"/>
      <point x="443" y="313" type="line" smooth="yes"/>
      <point x="443" y="157"/>
      <point x="389" y="68"/>
      <point x="292" y="68" type="curve" smooth="yes"/>
      <point x="244" y="68"/>
      <point x="214" y="85"/>
      <point x="175" y="121" type="curve"/>
      <point x="170" y="119"/>
      <point x="168" y="115"/>
      <point x="168" y="108" type="curve"/>
      <point x="168" y="61"/>
      <point x="245" y="-20"/>
    </contour>
  </outline>
</glyph>
<glyph name="c" format="1">
  <advance width="600"/>
  <unicode hex="0063"/>
  <outline>
    <contour>
      <point x="360" y="535" type="curve" smooth="yes"/>
      <point x="204" y="535"/>
      <point x="68" y="418"/>
      <point x="68" y="237" type="curve" smooth="yes"/>
      <point x="68" y="207" type="line" smooth="yes"/>
      <point x="68" y="147"/>
      <point x="91" y="85"/>
      <point x="131" y="45" type="curve" smooth="yes"/>
      <point x="146" y="30"/>
      <point x="186" y="24"/>
      <point x="200" y="39" type="curve"/>
      <point x="170" y="88"/>
      <point x="146" y="141"/>
      <point x="146" y="194" type="curve" smooth="yes"/>
      <point x="146" y="223" type="line" smooth="yes"/>
      <point x="146" y="348"/>
      <point x="230" y="455"/>
      <point x="358" y="455" type="curve" smooth="yes"/>
      <point x="419" y="455"/>
      <point x="458" y="435"/>
      <point x="483" y="412" type="curve"/>
      <point x="506" y="428"/>
      <point x="517" y="451"/>
      <point x="485" y="483" type="curve"/>
      <point x="445" y="523"/>
      <point x="421" y="535"/>
    </contour>
    <contour>
      <point x="129" y="115" type="curve"/>
      <point x="116" y="104"/>
      <point x="105" y="72"/>
      <point x="131" y="45" type="curve" smooth="yes"/>
      <point x="172" y="4"/>
      <point x="209" y="-20"/>
      <point x="276" y="-20" type="curve" smooth="yes"/>
      <point x="317" y="-20" type="line" smooth="yes"/>
      <point x="416" y="-20"/>
      <point x="478" y="2"/>
      <point x="511" y="35" type="curve" smooth="yes"/>
      <point x="521" y="45"/>
      <point x="524" y="54"/>
      <point x="524" y="67" type="curve" smooth="yes"/>
      <point x="524" y="86"/>
      <point x="524" y="106"/>
      <point x="524" y="123" type="curve"/>
      <point x="509" y="123" type="line"/>
      <point x="461" y="72"/>
      <point x="396" y="60"/>
      <point x="300" y="60" type="curve" smooth="yes"/>
      <point x="217" y="60"/>
      <point x="174" y="73"/>
    </contour>
    <contour>
      <point x="525" y="293" type="line"/>
      <point x="525" y="395" type="line" smooth="yes"/>
      <point x="525" y="429"/>
      <point x="514" y="454"/>
      <point x="485" y="483" type="curve" smooth="yes"/>
      <point x="463" y="505"/>
      <point x="429" y="498"/>
      <point x="415" y="483" type="curve"/>
      <point x="434" y="465"/>
      <point x="445" y="429"/>
      <point x="445" y="399" type="curve" smooth="yes"/>
      <point x="445" y="326" type="line" smooth="yes"/>
      <point x="445" y="320"/>
      <point x="447" y="316"/>
      <point x="451" y="312" type="curve" smooth="yes"/>
      <point x="464" y="299"/>
      <point x="484" y="293"/>
      <point x="511" y="293" type="curve" smooth="yes"/>
    </contour>
  </outline>
</glyph>
<glyph name="d" format="1">
  <advance width="600"/>
  <unicode hex="0064"/>
  <outline>
    <contour>
      <point x="286" y="540" type="curve" smooth="yes"/>
      <point x="156" y="540"/>
      <point x="67" y="419"/>
      <point x="67" y="213" type="curve" smooth="yes"/>
      <point x="67" y="178" type="line" smooth="yes"/>
      <point x="67" y="132"/>
      <point x="102" y="64"/>
      <point x="149" y="64" type="curve"/>
      <point x="166" y="64"/>
      <point x="179" y="69"/>
      <point x="180" y="83" type="curve"/>
      <point x="169" y="109"/>
      <point x="163" y="143"/>
      <point x="163" y="200" type="curve" smooth="yes"/>
      <point x="163" y="219" type="line" smooth="yes"/>
      <point x="163" y="361"/>
      <point x="210" y="456"/>
      <point x="308" y="456" type="curve" smooth="yes"/>
      <point x="360" y="456"/>
      <point x="391" y="440"/>
      <point x="431" y="421" type="curve"/>
      <point x="439" y="423"/>
      <point x="440" y="439"/>
      <point x="436" y="449" type="curve"/>
      <point x="424" y="487"/>
      <point x="356" y="540"/>
    </contour>
    <contour>
      <point x="508" y="-10" type="line"/>
      <point x="508" y="205"/>
      <point x="508" y="533"/>
      <point x="508" y="728" type="curve" smooth="yes"/>
      <point x="508" y="734"/>
      <point x="506" y="738"/>
      <point x="502" y="742" type="curve" smooth="yes"/>
      <point x="491" y="753"/>
      <point x="459" y="760"/>
      <point x="430" y="760" type="curve" smooth="yes"/>
      <point x="414" y="760" type="line"/>
      <point x="414" y="625"/>
      <point x="414" y="540"/>
      <point x="414" y="405" type="curve" smooth="yes"/>
      <point x="414" y="319"/>
      <point x="414" y="112"/>
      <point x="414" y="26" type="curve" smooth="yes"/>
      <point x="414" y="20"/>
      <point x="416" y="16"/>
      <point x="420" y="12" type="curve" smooth="yes"/>
      <point x="435" y="-3"/>
      <point x="463" y="-10"/>
      <point x="492" y="-10" type="curve" smooth="yes"/>
    </contour>
    <contour>
      <point x="218" y="-16" type="curve" smooth="yes"/>
      <point x="289" y="-16"/>
      <point x="372" y="44"/>
      <point x="422" y="108" type="curve" smooth="yes"/>
      <point x="444" y="135"/>
      <point x="449" y="154"/>
      <point x="448" y="195" type="curve"/>
      <point x="355" y="105"/>
      <point x="299" y="78"/>
      <point x="223" y="78" type="curve" smooth="yes"/>
      <point x="160" y="78"/>
      <point x="134" y="143"/>
      <point x="108" y="224" type="curve"/>
      <point x="77" y="222"/>
      <point x="67" y="199"/>
      <point x="67" y="178" type="curve" smooth="yes"/>
      <point x="67" y="79"/>
      <point x="127" y="-16"/>
    </contour>
  </outline>
</glyph>
<glyph name="e" format="1">
  <advance width="600"/>
  <unicode hex="0065"/>
  <outline>
    <contour>
      <point x="351" y="540" type="curve"/>
      <point x="189" y="540"/>
      <point x="71" y="455"/>
      <point x="71" y="267" type="curve" smooth="yes"/>
      <point x="71" y="207" type="line"/>
      <point x="71" y="140"/>
      <point x="95" y="89"/>
      <point x="134" y="51" type="curve"/>
      <point x="152" y="33"/>
      <point x="183" y="30"/>
      <point x="208" y="46" type="curve"/>
      <point x="177" y="99"/>
      <point x="160" y="144"/>
      <point x="160" y="198" type="curve" smooth="yes"/>
      <point x="160" y="261" type="line" smooth="yes"/>
      <point x="160" y="396"/>
      <point x="227" y="450"/>
      <point x="343" y="450" type="curve" smooth="yes"/>
      <point x="399" y="450"/>
      <point x="437" y="439"/>
      <point x="461" y="400" type="curve"/>
      <point x="480" y="400"/>
      <point x="490" y="414"/>
      <point x="490" y="430" type="curve"/>
      <point x="490" y="492"/>
      <point x="414" y="540"/>
    </contour>
    <contour>
      <point x="357" y="215" type="line" smooth="yes"/>
      <point x="482" y="215"/>
      <point x="529" y="283"/>
      <point x="529" y="356" type="curve" smooth="yes"/>
      <point x="529" y="391" type="line" smooth="yes"/>
      <point x="529" y="424"/>
      <point x="516" y="455"/>
      <point x="483" y="487" type="curve" smooth="yes"/>
      <point x="451" y="520"/>
      <point x="411" y="540"/>
      <point x="365" y="540" type="curve" smooth="yes"/>
      <point x="351" y="540" type="line" smooth="yes"/>
      <point x="321" y="540"/>
      <point x="301" y="519"/>
      <point x="301" y="488" type="curve"/>
      <point x="376" y="488"/>
      <point x="439" y="458"/>
      <point x="439" y="388" type="curve" smooth="yes"/>
      <point x="439" y="356" type="line" smooth="yes"/>
      <point x="439" y="303"/>
      <point x="411" y="285"/>
      <point x="348" y="285" type="curve" smooth="yes"/>
      <point x="260" y="285"/>
      <point x="215" y="285"/>
      <point x="143" y="285" type="curve"/>
      <point x="142" y="280"/>
      <point x="142" y="275"/>
      <point x="144" y="270" type="curve"/>
      <point x="152" y="246"/>
      <point x="205" y="215"/>
      <point x="265" y="215" type="curve" smooth="yes"/>
    </contour>
    <contour>
      <point x="117" y="160" type="curve"/>
      <point x="92" y="135"/>
      <point x="102" y="82"/>
      <point x="134" y="51" type="curve"/>
      <point x="178" y="6"/>
      <point x="222" y="-20"/>
      <point x="291" y="-20" type="curve" smooth="yes"/>
      <point x="317" y="-20" type="line" smooth="yes"/>
      <point x="409" y="-20"/>
      <point x="478" y="5"/>
      <point x="504" y="35" type="curve" smooth="yes"/>
      <point x="515" y="47"/>
      <point x="518" y="57"/>
      <point x="518" y="71" type="curve"/>
      <point x="518" y="86"/>
      <point x="518" y="117"/>
      <point x="518" y="130" type="curve"/>
      <point x="502" y="130" type="line"/>
      <point x="457" y="83"/>
      <point x="394" y="70"/>
      <point x="300" y="70" type="curve" smooth="yes"/>
      <point x="216" y="70"/>
      <point x="163" y="93"/>
    </contour>
  </outline>
</glyph>
<glyph name="f" format="1">
  <advance width="600"/>
  <unicode hex="0066"/>
  <outline>
    <contour>
      <point x="250" y="628" type="curve"/>
      <point x="289" y="664"/>
      <point x="331" y="676"/>
      <point x="400" y="676" type="curve" smooth="yes"/>
      <point x="459" y="676"/>
      <point x="511" y="662"/>
      <point x="544" y="645" type="curve"/>
      <point x="560" y="645" type="line"/>
      <point x="560" y="665" type="line"/>
      <point x="560" y="695"/>
      <point x="553" y="717"/>
      <point x="544" y="727" type="curve" smooth="yes"/>
      <point x="531" y="741"/>
      <point x="477" y="760"/>
      <point x="423" y="760" type="curve"/>
      <point x="409" y="760" type="line"/>
      <point x="342" y="760"/>
      <point x="292" y="751"/>
      <point x="243" y="703" type="curve" smooth="yes"/>
      <point x="224" y="684"/>
      <point x="226" y="648"/>
    </contour>
    <contour>
      <point x="280" y="-10" type="line"/>
      <point x="280" y="179"/>
      <point x="280" y="340"/>
      <point x="280" y="500" type="curve" smooth="yes"/>
      <point x="274" y="593"/>
      <point x="268" y="643"/>
      <point x="303" y="710" type="curve"/>
      <point x="284" y="722"/>
      <point x="259" y="718"/>
      <point x="243" y="703" type="curve" smooth="yes"/>
      <point x="206" y="665"/>
      <point x="190" y="630"/>
      <point x="190" y="563" type="curve"/>
      <point x="190" y="420"/>
      <point x="190" y="223"/>
      <point x="190" y="26" type="curve"/>
      <point x="190" y="20"/>
      <point x="192" y="16"/>
      <point x="196" y="12" type="curve" smooth="yes"/>
      <point x="211" y="-3"/>
      <point x="235" y="-10"/>
      <point x="264" y="-10" type="curve" smooth="yes"/>
    </contour>
    <contour>
      <point x="55" y="470" type="curve"/>
      <point x="55" y="454" type="line" smooth="yes"/>
      <point x="55" y="424"/>
      <point x="62" y="401"/>
      <point x="77" y="386" type="curve" smooth="yes"/>
      <point x="81" y="382"/>
      <point x="85" y="380"/>
      <point x="91" y="380" type="curve"/>
      <point x="144" y="380"/>
      <point x="205" y="380"/>
      <point x="259" y="380" type="curve"/>
      <point x="323" y="380"/>
      <point x="461" y="380"/>
      <point x="520" y="380" type="curve"/>
      <point x="520" y="396" type="line" smooth="yes"/>
      <point x="520" y="426"/>
      <point x="513" y="449"/>
      <point x="498" y="464" type="curve" smooth="yes"/>
      <point x="494" y="468"/>
      <point x="490" y="470"/>
      <point x="484" y="470" type="curve" smooth="yes"/>
      <point x="374" y="470"/>
      <point x="166" y="470"/>
    </contour>
  </outline>
</glyph>
<glyph name="g" format="1">
  <advance width="600"/>
  <unicode hex="0067"/>
  <outline>
    <contour>
      <point x="313" y="462" type="curve" smooth="yes"/>
      <point x="370" y="462"/>
      <point x="425" y="449"/>
      <point x="454" y="424" type="curve"/>
      <point x="475" y="450"/>
      <point x="475" y="481"/>
      <point x="459" y="496" type="curve" smooth="yes"/>
      <point x="430" y="525"/>
      <point x="358" y="535"/>
      <point x="305" y="535" type="curve" smooth="yes"/>
      <point x="177" y="535"/>
      <point x="74" y="463"/>
      <point x="74" y="353" type="curve" smooth="yes"/>
      <point x="74" y="325" type="line" smooth="yes"/>
      <point x="74" y="274"/>
      <point x="92" y="243"/>
      <point x="131" y="203" type="curve" smooth="yes"/>
      <point x="141" y="193"/>
      <point x="192" y="193"/>
      <point x="199" y="201" type="curve"/>
      <point x="167" y="239"/>
      <point x="151" y="264"/>
      <point x="151" y="310" type="curve" smooth="yes"/>
      <point x="151" y="331" type="line" smooth="yes"/>
      <point x="151" y="422"/>
      <point x="212" y="462"/>
    </contour>
    <contour>
      <point x="297" y="222" type="curve" smooth="yes"/>
      <point x="231" y="222"/>
      <point x="183" y="228"/>
      <point x="128" y="264" type="curve"/>
      <point x="116" y="242"/>
      <point x="112" y="223"/>
      <point x="131" y="203" type="curve" smooth="yes"/>
      <point x="177" y="157"/>
      <point x="228" y="148"/>
      <point x="309" y="148" type="curve" smooth="yes"/>
      <point x="441" y="148"/>
      <point x="526" y="231"/>
      <point x="526" y="340" type="curve" smooth="yes"/>
      <point x="526" y="368" type="line" smooth="yes"/>
      <point x="526" y="412"/>
      <point x="510" y="445"/>
      <point x="459" y="496" type="curve" smooth="yes"/>
      <point x="444" y="511"/>
      <point x="403" y="509"/>
      <point x="383" y="492" type="curve"/>
      <point x="430" y="454"/>
      <point x="449" y="423"/>
      <point x="449" y="369" type="curve" smooth="yes"/>
      <point x="449" y="342" type="line" smooth="yes"/>
      <point x="449" y="271"/>
      <point x="389" y="222"/>
    </contour>
    <contour>
      <point x="185" y="63" type="curve" smooth="yes"/>
      <point x="185" y="50" type="line" smooth="yes"/>
      <point x="185" y="-5"/>
      <point x="224" y="-36"/>
      <point x="295" y="-36" type="curve" smooth="yes"/>
      <point x="422" y="-36" type="line" smooth="yes"/>
      <point x="455" y="-36"/>
      <point x="478" y="-64"/>
      <point x="478" y="-100" type="curve" smooth="yes"/>
      <point x="478" y="-124" type="line" smooth="yes"/>
      <point x="478" y="-162"/>
      <point x="473" y="-175"/>
      <point x="456" y="-201" type="curve"/>
      <point x="468" y="-206"/>
      <point x="501" y="-203"/>
      <point x="511" y="-193" type="curve" smooth="yes"/>
      <point x="544" y="-160"/>
      <point x="558" y="-136"/>
      <point x="558" y="-95" type="curve" smooth="yes"/>
      <point x="558" y="-80" type="line" smooth="yes"/>
      <point x="558" y="-12"/>
      <point x="503" y="40"/>
      <point x="433" y="40" type="curve" smooth="yes"/>
      <point x="292" y="40" type="line" smooth="yes"/>
      <point x="269" y="40"/>
      <point x="262" y="47"/>
      <point x="262" y="70" type="curve" smooth="yes"/>
      <point x="262" y="93" type="line" smooth="yes"/>
      <point x="262" y="119"/>
      <point x="273" y="154"/>
      <point x="287" y="169" type="curve"/>
      <point x="287" y="176"/>
      <point x="284" y="179"/>
      <point x="276" y="181" type="curve" smooth="yes"/>
      <point x="246" y="181"/>
      <point x="185" y="113"/>
    </contour>
    <contour>
      <point x="525" y="-133" type="curve"/>
      <point x="455" y="-181"/>
      <point x="410" y="-185"/>
      <point x="329" y="-185" type="curve"/>
      <point x="238" y="-185" type="line"/>
      <point x="162" y="-185"/>
      <point x="123" y="-163"/>
      <point x="123" y="-116" type="curve" smooth="yes"/>
      <point x="123" y="-91" type="line" smooth="yes"/>
      <point x="123" y="-58"/>
      <point x="149" y="-19"/>
      <point x="230" y="6" type="curve"/>
      <point x="230" y="18"/>
      <point x="223" y="31"/>
      <point x="211" y="31" type="curve"/>
      <point x="113" y="31"/>
      <point x="43" y="-28"/>
      <point x="43" y="-107" type="curve" smooth="yes"/>
      <point x="43" y="-128" type="line" smooth="yes"/>
      <point x="43" y="-196"/>
      <point x="116" y="-250"/>
      <point x="219" y="-250" type="curve"/>
      <point x="287" y="-250" type="line"/>
      <point x="390" y="-250"/>
      <point x="468" y="-236"/>
      <point x="511" y="-193" type="curve"/>
      <point x="529" y="-175"/>
      <point x="536" y="-144"/>
    </contour>
    <contour>
      <point x="448" y="476" type="curve" smooth="yes"/>
      <point x="517" y="540" type="line" smooth="yes"/>
      <point x="544" y="565"/>
      <point x="558" y="577"/>
      <point x="558" y="609" type="curve" smooth="yes"/>
      <point x="558" y="611"/>
      <point x="558" y="619"/>
      <point x="558" y="622" type="curve" smooth="yes"/>
      <point x="558" y="628"/>
      <point x="556" y="632"/>
      <point x="552" y="636" type="curve" smooth="yes"/>
      <point x="538" y="649"/>
      <point x="515" y="655"/>
      <point x="489" y="655" type="curve" smooth="yes"/>
      <point x="478" y="655" type="line"/>
      <point x="478" y="651"/>
      <point x="478" y="639"/>
      <point x="478" y="635" type="curve" smooth="yes"/>
      <point x="478" y="615"/>
      <point x="472" y="602"/>
      <point x="464" y="585" type="curve" smooth="yes"/>
      <point x="416" y="483" type="line"/>
      <point x="423" y="474"/>
      <point x="439" y="469"/>
    </contour>
  </outline>
</glyph>
<glyph name="h" format="1">
  <advance width="600"/>
  <unicode hex="0068"/>
  <outline>
    <contour>
      <point x="186" y="-10" type="line"/>
      <point x="186" y="211"/>
      <point x="186" y="528"/>
      <point x="186" y="728" type="curve" smooth="yes"/>
      <point x="186" y="734"/>
      <point x="184" y="738"/>
      <point x="180" y="742" type="curve" smooth="yes"/>
      <point x="169" y="753"/>
      <point x="137" y="760"/>
      <point x="108" y="760" type="curve" smooth="yes"/>
      <point x="92" y="760" type="line"/>
      <point x="92" y="597"/>
      <point x="92" y="354"/>
      <point x="92" y="191" type="curve" smooth="yes"/>
      <point x="92" y="136"/>
      <point x="92" y="80"/>
      <point x="92" y="26" type="curve" smooth="yes"/>
      <point x="92" y="20"/>
      <point x="94" y="16"/>
      <point x="98" y="12" type="curve" smooth="yes"/>
      <point x="113" y="-3"/>
      <point x="141" y="-10"/>
      <point x="170" y="-10" type="curve" smooth="yes"/>
    </contour>
    <contour>
      <point x="377" y="536" type="curve" smooth="yes"/>
      <point x="307" y="536"/>
      <point x="228" y="476"/>
      <point x="178" y="412" type="curve" smooth="yes"/>
      <point x="156" y="385"/>
      <point x="151" y="366"/>
      <point x="152" y="325" type="curve"/>
      <point x="248" y="426"/>
      <point x="298" y="446"/>
      <point x="368" y="446" type="curve" smooth="yes"/>
      <point x="416" y="446"/>
      <point x="445" y="426"/>
      <point x="468" y="381" type="curve"/>
      <point x="499" y="379"/>
      <point x="508" y="399"/>
      <point x="508" y="417" type="curve" smooth="yes"/>
      <point x="508" y="467"/>
      <point x="444" y="536"/>
    </contour>
    <contour>
      <point x="508" y="-10" type="line"/>
      <point x="508" y="147"/>
      <point x="508" y="261"/>
      <point x="508" y="417" type="curve" smooth="yes"/>
      <point x="508" y="424"/>
      <point x="506" y="427"/>
      <point x="502" y="431" type="curve" smooth="yes"/>
      <point x="487" y="447"/>
      <point x="459" y="453"/>
      <point x="430" y="453" type="curve" smooth="yes"/>
      <point x="414" y="453" type="line"/>
      <point x="414" y="353"/>
      <point x="414" y="292"/>
      <point x="414" y="191" type="curve" smooth="yes"/>
      <point x="414" y="136"/>
      <point x="414" y="80"/>
      <point x="414" y="26" type="curve" smooth="yes"/>
      <point x="414" y="20"/>
      <point x="416" y="16"/>
      <point x="420" y="12" type="curve" smooth="yes"/>
      <point x="435" y="-3"/>
      <point x="463" y="-10"/>
      <point x="492" y="-10" type="curve" smooth="yes"/>
    </contour>
  </outline>
</glyph>
<glyph name="i" format="1">
  <advance width="300"/>
  <unicode hex="0069"/>
  <outline>
    <contour>
      <point x="210" y="613" type="line"/>
      <point x="210" y="637"/>
      <point x="210" y="670"/>
      <point x="210" y="694" type="curve" smooth="yes"/>
      <point x="210" y="701"/>
      <point x="209" y="704"/>
      <point x="202" y="711" type="curve" smooth="yes"/>
      <point x="187" y="726"/>
      <point x="169" y="733"/>
      <point x="139" y="733" type="curve"/>
      <point x="90" y="733" type="line"/>
      <point x="90" y="708"/>
      <point x="90" y="677"/>
      <point x="90" y="652" type="curve" smooth="yes"/>
      <point x="90" y="645"/>
      <point x="91" y="642"/>
      <point x="98" y="635" type="curve" smooth="yes"/>
      <point x="113" y="620"/>
      <point x="132" y="613"/>
      <point x="161" y="613" type="curve"/>
    </contour>
    <contour>
      <point x="197" y="-10" type="line"/>
      <point x="197" y="155"/>
      <point x="197" y="329"/>
      <point x="197" y="494" type="curve" smooth="yes"/>
      <point x="197" y="500"/>
      <point x="195" y="504"/>
      <point x="191" y="508" type="curve" smooth="yes"/>
      <point x="180" y="519"/>
      <point x="148" y="526"/>
      <point x="119" y="526" type="curve" smooth="yes"/>
      <point x="103" y="526" type="line"/>
      <point x="103" y="415"/>
      <point x="103" y="298"/>
      <point x="103" y="187" type="curve" smooth="yes"/>
      <point x="103" y="134"/>
      <point x="103" y="79"/>
      <point x="103" y="26" type="curve" smooth="yes"/>
      <point x="103" y="20"/>
      <point x="105" y="16"/>
      <point x="109" y="12" type="curve" smooth="yes"/>
      <point x="124" y="-3"/>
      <point x="152" y="-10"/>
      <point x="181" y="-10" type="curve" smooth="yes"/>
    </contour>
  </outline>
</glyph>
<glyph name="j" format="1">
  <advance width="300"/>
  <unicode hex="006A"/>
  <outline>
    <contour>
      <point x="210" y="613" type="line"/>
      <point x="210" y="637"/>
      <point x="210" y="670"/>
      <point x="210" y="694" type="curve" smooth="yes"/>
      <point x="210" y="701"/>
      <point x="209" y="704"/>
      <point x="202" y="711" type="curve" smooth="yes"/>
      <point x="187" y="726"/>
      <point x="169" y="733"/>
      <point x="139" y="733" type="curve"/>
      <point x="90" y="733" type="line"/>
      <point x="90" y="708"/>
      <point x="90" y="677"/>
      <point x="90" y="652" type="curve" smooth="yes"/>
      <point x="90" y="645"/>
      <point x="91" y="642"/>
      <point x="98" y="635" type="curve" smooth="yes"/>
      <point x="113" y="620"/>
      <point x="132" y="613"/>
      <point x="161" y="613" type="curve"/>
    </contour>
    <contour>
      <point x="45" y="-250" type="line"/>
      <point x="114" y="-250"/>
      <point x="197" y="-197"/>
      <point x="197" y="-8" type="curve" smooth="yes"/>
      <point x="197" y="157"/>
      <point x="197" y="329"/>
      <point x="197" y="494" type="curve" smooth="yes"/>
      <point x="197" y="500"/>
      <point x="195" y="504"/>
      <point x="191" y="508" type="curve" smooth="yes"/>
      <point x="180" y="519"/>
      <point x="148" y="526"/>
      <point x="119" y="526" type="curve" smooth="yes"/>
      <point x="103" y="526" type="line"/>
      <point x="103" y="423"/>
      <point x="103" y="282"/>
      <point x="103" y="211" type="curve"/>
      <point x="103" y="138"/>
      <point x="103" y="65"/>
      <point x="103" y="-8" type="curve" smooth="yes"/>
      <point x="103" y="-116"/>
      <point x="79" y="-160"/>
      <point x="5" y="-160" type="curve"/>
      <point x="-4" y="-160" type="line"/>
      <point x="-4" y="-167" type="line" smooth="yes"/>
      <point x="-4" y="-217"/>
      <point x="12" y="-250"/>
      <point x="33" y="-250" type="curve" smooth="yes"/>
    </contour>
  </outline>
</glyph>
<glyph name="k" format="1">
  <advance width="600"/>
  <unicode hex="006B"/>
  <outline>
    <contour>
      <point x="182" y="-10" type="line"/>
      <point x="182" y="157"/>
      <point x="182" y="575"/>
      <point x="182" y="722" type="curve" smooth="yes"/>
      <point x="182" y="728"/>
      <point x="180" y="732"/>
      <point x="176" y="736" type="curve" smooth="yes"/>
      <point x="165" y="747"/>
      <point x="137" y="754"/>
      <point x="108" y="754" type="curve" smooth="yes"/>
      <point x="92" y="754" type="line"/>
      <point x="92" y="643"/>
      <point x="92" y="302"/>
      <point x="92" y="191" type="curve" smooth="yes"/>
      <point x="92" y="136"/>
      <point x="92" y="80"/>
      <point x="92" y="26" type="curve" smooth="yes"/>
      <point x="92" y="20"/>
      <point x="94" y="16"/>
      <point x="98" y="12" type="curve" smooth="yes"/>
      <point x="113" y="-3"/>
      <point x="137" y="-10"/>
      <point x="166" y="-10" type="curve" smooth="yes"/>
    </contour>
    <contour>
      <point x="292" y="281" type="line"/>
      <point x="250" y="246"/>
      <point x="240" y="215"/>
      <point x="252" y="201" type="curve" smooth="yes"/>
      <point x="372" y="56" type="line" smooth="yes"/>
      <point x="422" y="-3"/>
      <point x="451" y="-20"/>
      <point x="498" y="-20" type="curve" smooth="yes"/>
      <point x="522" y="-20"/>
      <point x="544" y="-5"/>
      <point x="544" y="14" type="curve" smooth="yes"/>
      <point x="544" y="90" type="line"/>
      <point x="528" y="90" type="line"/>
      <point x="520" y="83"/>
      <point x="506" y="78"/>
      <point x="494" y="78" type="curve" smooth="yes"/>
      <point x="467" y="78"/>
      <point x="449" y="89"/>
      <point x="427" y="116" type="curve" smooth="yes"/>
    </contour>
    <contour>
      <point x="451" y="530" type="curve" smooth="yes"/>
      <point x="435" y="530" type="line"/>
      <point x="365" y="357"/>
      <point x="264" y="260"/>
      <point x="128" y="214" type="curve"/>
      <point x="128" y="176"/>
      <point x="144" y="158"/>
      <point x="161" y="161" type="curve" smooth="yes"/>
      <point x="300" y="191"/>
      <point x="425" y="288"/>
      <point x="512" y="466" type="curve" smooth="yes"/>
      <point x="519" y="480"/>
      <point x="522" y="487"/>
      <point x="522" y="492" type="curve" smooth="yes"/>
      <point x="522" y="510"/>
      <point x="492" y="530"/>
    </contour>
  </outline>
</glyph>
<glyph name="l" format="1">
  <advance width="300"/>
  <unicode hex="006C"/>
  <outline>
    <contour>
      <point x="34" y="750" type="curve"/>
      <point x="34" y="734" type="line" smooth="yes"/>
      <point x="34" y="698"/>
      <point x="39" y="677"/>
      <point x="50" y="666" type="curve" smooth="yes"/>
      <point x="54" y="662"/>
      <point x="58" y="660"/>
      <point x="64" y="660" type="curve"/>
      <point x="106" y="660"/>
      <point x="118" y="660"/>
      <point x="160" y="660" type="curve"/>
      <point x="160" y="676" type="line" smooth="yes"/>
      <point x="160" y="696"/>
      <point x="148" y="725"/>
      <point x="130" y="744" type="curve" smooth="yes"/>
      <point x="126" y="748"/>
      <point x="122" y="750"/>
      <point x="116" y="750" type="curve" smooth="yes"/>
      <point x="98" y="750"/>
      <point x="52" y="750"/>
    </contour>
    <contour>
      <point x="197" y="-10" type="line"/>
      <point x="197" y="157"/>
      <point x="197" y="571"/>
      <point x="197" y="718" type="curve" smooth="yes"/>
      <point x="197" y="724"/>
      <point x="195" y="728"/>
      <point x="191" y="732" type="curve" smooth="yes"/>
      <point x="180" y="743"/>
      <point x="148" y="750"/>
      <point x="119" y="750" type="curve" smooth="yes"/>
      <point x="103" y="750" type="line"/>
      <point x="103" y="639"/>
      <point x="103" y="302"/>
      <point x="103" y="191" type="curve" smooth="yes"/>
      <point x="103" y="136"/>
      <point x="103" y="80"/>
      <point x="103" y="26" type="curve" smooth="yes"/>
      <point x="103" y="20"/>
      <point x="105" y="16"/>
      <point x="109" y="12" type="curve" smooth="yes"/>
      <point x="124" y="-3"/>
      <point x="152" y="-10"/>
      <point x="181" y="-10" type="curve" smooth="yes"/>
    </contour>
  </outline>
</glyph>
<glyph name="m" format="1">
  <advance width="900"/>
  <unicode hex="006D"/>
  <outline>
    <contour>
      <point x="180" y="-10" type="line"/>
      <point x="180" y="160"/>
      <point x="180" y="329"/>
      <point x="180" y="498" type="curve" smooth="yes"/>
      <point x="180" y="504"/>
      <point x="178" y="508"/>
      <point x="174" y="512" type="curve" smooth="yes"/>
      <point x="163" y="523"/>
      <point x="131" y="530"/>
      <point x="102" y="530" type="curve" smooth="yes"/>
      <point x="86" y="530" type="line"/>
      <point x="86" y="418"/>
      <point x="86" y="303"/>
      <point x="86" y="191" type="curve" smooth="yes"/>
      <point x="86" y="136"/>
      <point x="86" y="80"/>
      <point x="86" y="26" type="curve" smooth="yes"/>
      <point x="86" y="20"/>
      <point x="88" y="16"/>
      <point x="92" y="12" type="curve" smooth="yes"/>
      <point x="107" y="-3"/>
      <point x="135" y="-10"/>
      <point x="164" y="-10" type="curve" smooth="yes"/>
    </contour>
    <contour>
      <point x="372" y="536" type="curve" smooth="yes"/>
      <point x="297" y="536"/>
      <point x="223" y="477"/>
      <point x="172" y="412" type="curve" smooth="yes"/>
      <point x="150" y="385"/>
      <point x="145" y="366"/>
      <point x="146" y="325" type="curve"/>
      <point x="240" y="416"/>
      <point x="288" y="442"/>
      <point x="367" y="442" type="curve" smooth="yes"/>
      <point x="406" y="442"/>
      <point x="439" y="422"/>
      <point x="454" y="368" type="curve"/>
      <point x="488" y="384"/>
      <point x="499" y="401"/>
      <point x="499" y="415" type="curve" smooth="yes"/>
      <point x="499" y="464"/>
      <point x="434" y="536"/>
    </contour>
    <contour>
      <point x="499" y="-10" type="line"/>
      <point x="499" y="145"/>
      <point x="499" y="260"/>
      <point x="499" y="415" type="curve" smooth="yes"/>
      <point x="499" y="421"/>
      <point x="497" y="425"/>
      <point x="493" y="429" type="curve" smooth="yes"/>
      <point x="478" y="444"/>
      <point x="450" y="451"/>
      <point x="421" y="451" type="curve" smooth="yes"/>
      <point x="405" y="451" type="line"/>
      <point x="405" y="351"/>
      <point x="405" y="291"/>
      <point x="405" y="191" type="curve" smooth="yes"/>
      <point x="405" y="136"/>
      <point x="405" y="80"/>
      <point x="405" y="26" type="curve" smooth="yes"/>
      <point x="405" y="20"/>
      <point x="407" y="16"/>
      <point x="411" y="12" type="curve" smooth="yes"/>
      <point x="426" y="-3"/>
      <point x="454" y="-10"/>
      <point x="483" y="-10" type="curve" smooth="yes"/>
    </contour>
    <contour>
      <point x="687" y="536" type="curve" smooth="yes"/>
      <point x="612" y="536"/>
      <point x="538" y="477"/>
      <point x="487" y="412" type="curve" smooth="yes"/>
      <point x="465" y="385"/>
      <point x="460" y="366"/>
      <point x="461" y="325" type="curve"/>
      <point x="555" y="416"/>
      <point x="603" y="442"/>
      <point x="682" y="442" type="curve" smooth="yes"/>
      <point x="721" y="442"/>
      <point x="754" y="422"/>
      <point x="769" y="368" type="curve"/>
      <point x="803" y="384"/>
      <point x="814" y="401"/>
      <point x="814" y="415" type="curve" smooth="yes"/>
      <point x="814" y="464"/>
      <point x="749" y="536"/>
    </contour>
    <contour>
      <point x="814" y="-10" type="line"/>
      <point x="814" y="145"/>
      <point x="814" y="260"/>
      <point x="814" y="415" type="curve" smooth="yes"/>
      <point x="814" y="421"/>
      <point x="812" y="425"/>
      <point x="808" y="429" type="curve" smooth="yes"/>
      <point x="793" y="444"/>
      <point x="765" y="451"/>
      <point x="736" y="451" type="curve" smooth="yes"/>
      <point x="720" y="451" type="line"/>
      <point x="720" y="351"/>
      <point x="720" y="291"/>
      <point x="720" y="191" type="curve" smooth="yes"/>
      <point x="720" y="136"/>
      <point x="720" y="80"/>
      <point x="720" y="26" type="curve" smooth="yes"/>
      <point x="720" y="20"/>
      <point x="722" y="16"/>
      <point x="726" y="12" type="curve" smooth="yes"/>
      <point x="741" y="-3"/>
      <point x="769" y="-10"/>
      <point x="798" y="-10" type="curve" smooth="yes"/>
    </contour>
  </outline>
</glyph>
<glyph name="n" format="1">
  <advance width="600"/>
  <unicode hex="006E"/>
  <outline>
    <contour>
      <point x="186" y="-10" type="line"/>
      <point x="186" y="160"/>
      <point x="186" y="329"/>
      <point x="186" y="498" type="curve" smooth="yes"/>
      <point x="186" y="504"/>
      <point x="184" y="508"/>
      <point x="180" y="512" type="curve" smooth="yes"/>
      <point x="169" y="523"/>
      <point x="137" y="530"/>
      <point x="108" y="530" type="curve" smooth="yes"/>
      <point x="92" y="530" type="line"/>
      <point x="92" y="418"/>
      <point x="92" y="303"/>
      <point x="92" y="191" type="curve" smooth="yes"/>
      <point x="92" y="136"/>
      <point x="92" y="80"/>
      <point x="92" y="26" type="curve" smooth="yes"/>
      <point x="92" y="20"/>
      <point x="94" y="16"/>
      <point x="98" y="12" type="curve" smooth="yes"/>
      <point x="113" y="-3"/>
      <point x="141" y="-10"/>
      <point x="170" y="-10" type="curve" smooth="yes"/>
    </contour>
    <contour>
      <point x="377" y="536" type="curve" smooth="yes"/>
      <point x="307" y="536"/>
      <point x="228" y="476"/>
      <point x="178" y="412" type="curve" smooth="yes"/>
      <point x="156" y="385"/>
      <point x="151" y="366"/>
      <point x="152" y="325" type="curve"/>
      <point x="244" y="414"/>
      <point x="298" y="442"/>
      <point x="368" y="442" type="curve" smooth="yes"/>
      <point x="416" y="442"/>
      <point x="445" y="422"/>
      <point x="468" y="377" type="curve"/>
      <point x="499" y="375"/>
      <point x="508" y="399"/>
      <point x="508" y="417" type="curve" smooth="yes"/>
      <point x="508" y="467"/>
      <point x="444" y="536"/>
    </contour>
    <contour>
      <point x="508" y="-10" type="line"/>
      <point x="508" y="147"/>
      <point x="508" y="261"/>
      <point x="508" y="417" type="curve" smooth="yes"/>
      <point x="508" y="424"/>
      <point x="506" y="427"/>
      <point x="502" y="431" type="curve" smooth="yes"/>
      <point x="487" y="447"/>
      <point x="459" y="453"/>
      <point x="430" y="453" type="curve" smooth="yes"/>
      <point x="414" y="453" type="line"/>
      <point x="414" y="353"/>
      <point x="414" y="292"/>
      <point x="414" y="191" type="curve" smooth="yes"/>
      <point x="414" y="136"/>
      <point x="414" y="80"/>
      <point x="414" y="26" type="curve" smooth="yes"/>
      <point x="414" y="20"/>
      <point x="416" y="16"/>
      <point x="420" y="12" type="curve" smooth="yes"/>
      <point x="435" y="-3"/>
      <point x="463" y="-10"/>
      <point x="492" y="-10" type="curve" smooth="yes"/>
    </contour>
  </outline>
</glyph>
<glyph name="o" format="1">
  <advance width="600"/>
  <unicode hex="006F"/>
  <outline>
    <contour>
      <point x="296" y="540" type="curve" smooth="yes"/>
      <point x="165" y="540"/>
      <point x="65" y="432"/>
      <point x="65" y="279" type="curve" smooth="yes"/>
      <point x="65" y="233" type="line" smooth="yes"/>
      <point x="65" y="86"/>
      <point x="163" y="-20"/>
      <point x="287" y="-20" type="curve" smooth="yes"/>
      <point x="304" y="-20" type="line" smooth="yes"/>
      <point x="329" y="-20"/>
      <point x="341" y="6"/>
      <point x="341" y="36" type="curve"/>
      <point x="194" y="48"/>
      <point x="155" y="142"/>
      <point x="155" y="223" type="curve" smooth="yes"/>
      <point x="155" y="267" type="line" smooth="yes"/>
      <point x="155" y="360"/>
      <point x="210" y="450"/>
      <point x="315" y="450" type="curve" smooth="yes"/>
      <point x="363" y="450"/>
      <point x="390" y="442"/>
      <point x="423" y="426" type="curve"/>
      <point x="433" y="432"/>
      <point x="435" y="437"/>
      <point x="435" y="452" type="curve"/>
      <point x="435" y="493"/>
      <point x="368" y="540"/>
    </contour>
    <contour>
      <point x="304" y="-20" type="curve" smooth="yes"/>
      <point x="435" y="-20"/>
      <point x="535" y="88"/>
      <point x="535" y="241" type="curve" smooth="yes"/>
      <point x="535" y="287" type="line" smooth="yes"/>
      <point x="535" y="434"/>
      <point x="437" y="540"/>
      <point x="313" y="540" type="curve" smooth="yes"/>
      <point x="296" y="540" type="line" smooth="yes"/>
      <point x="271" y="540"/>
      <point x="259" y="514"/>
      <point x="259" y="484" type="curve"/>
      <point x="406" y="472"/>
      <point x="445" y="378"/>
      <point x="445" y="297" type="curve" smooth="yes"/>
      <point x="445" y="253" type="line" smooth="yes"/>
      <point x="445" y="160"/>
      <point x="391" y="70"/>
      <point x="285" y="70" type="curve" smooth="yes"/>
      <point x="237" y="70"/>
      <point x="210" y="78"/>
      <point x="177" y="94" type="curve"/>
      <point x="167" y="88"/>
      <point x="165" y="83"/>
      <point x="165" y="68" type="curve"/>
      <point x="165" y="27"/>
      <point x="232" y="-20"/>
    </contour>
  </outline>
</glyph>
<glyph name="p" format="1">
  <advance width="600"/>
  <unicode hex="0070"/>
  <outline>
    <contour>
      <point x="186" y="-240" type="line"/>
      <point x="186" y="-35"/>
      <point x="186" y="288"/>
      <point x="186" y="492" type="curve" smooth="yes"/>
      <point x="186" y="498"/>
      <point x="184" y="502"/>
      <point x="180" y="506" type="curve" smooth="yes"/>
      <point x="169" y="517"/>
      <point x="137" y="524"/>
      <point x="108" y="524" type="curve" smooth="yes"/>
      <point x="92" y="524" type="line"/>
      <point x="92" y="413"/>
      <point x="92" y="302"/>
      <point x="92" y="191" type="curve" smooth="yes"/>
      <point x="92" y="102"/>
      <point x="92" y="-115"/>
      <point x="92" y="-204" type="curve" smooth="yes"/>
      <point x="92" y="-210"/>
      <point x="94" y="-214"/>
      <point x="98" y="-218" type="curve" smooth="yes"/>
      <point x="113" y="-233"/>
      <point x="141" y="-240"/>
      <point x="170" y="-240" type="curve" smooth="yes"/>
    </contour>
    <contour>
      <point x="382" y="536" type="curve" smooth="yes"/>
      <point x="309" y="536"/>
      <point x="231" y="480"/>
      <point x="178" y="412" type="curve" smooth="yes"/>
      <point x="157" y="385"/>
      <point x="151" y="366"/>
      <point x="152" y="325" type="curve"/>
      <point x="245" y="415"/>
      <point x="301" y="442"/>
      <point x="377" y="442" type="curve" smooth="yes"/>
      <point x="434" y="442"/>
      <point x="473" y="393"/>
      <point x="492" y="318" type="curve"/>
      <point x="526" y="321"/>
      <point x="539" y="336"/>
      <point x="539" y="350" type="curve" smooth="yes"/>
      <point x="539" y="451"/>
      <point x="460" y="536"/>
    </contour>
    <contour>
      <point x="320" y="-20" type="curve" smooth="yes"/>
      <point x="465" y="-20"/>
      <point x="539" y="113"/>
      <point x="539" y="313" type="curve" smooth="yes"/>
      <point x="539" y="350" type="line" smooth="yes"/>
      <point x="539" y="397"/>
      <point x="499" y="467"/>
      <point x="458" y="467" type="curve"/>
      <point x="433" y="467"/>
      <point x="414" y="461"/>
      <point x="413" y="445" type="curve"/>
      <point x="433" y="411"/>
      <point x="443" y="385"/>
      <point x="443" y="336" type="curve" smooth="yes"/>
      <point x="443" y="313" type="line" smooth="yes"/>
      <point x="443" y="166"/>
      <point x="388" y="68"/>
      <point x="290" y="68" type="curve" smooth="yes"/>
      <point x="245" y="68"/>
      <point x="215" y="76"/>
      <point x="175" y="91" type="curve"/>
      <point x="170" y="89"/>
      <point x="168" y="85"/>
      <point x="168" y="78" type="curve"/>
      <point x="168" y="43"/>
      <point x="245" y="-20"/>
    </contour>
  </outline>
</glyph>
<glyph name="q" format="1">
  <advance width="600"/>
  <unicode hex="0071"/>
  <outline>
    <contour>
      <point x="508" y="-240" type="line"/>
      <point x="508" y="-34"/>
      <point x="508" y="293"/>
      <point x="508" y="498" type="curve" smooth="yes"/>
      <point x="508" y="504"/>
      <point x="506" y="508"/>
      <point x="502" y="512" type="curve" smooth="yes"/>
      <point x="491" y="523"/>
      <point x="459" y="530"/>
      <point x="430" y="530" type="curve" smooth="yes"/>
      <point x="414" y="530" type="line"/>
      <point x="414" y="403"/>
      <point x="414" y="276"/>
      <point x="414" y="149" type="curve" smooth="yes"/>
      <point x="414" y="61"/>
      <point x="414" y="-116"/>
      <point x="414" y="-204" type="curve" smooth="yes"/>
      <point x="414" y="-210"/>
      <point x="416" y="-214"/>
      <point x="420" y="-218" type="curve" smooth="yes"/>
      <point x="435" y="-233"/>
      <point x="463" y="-240"/>
      <point x="492" y="-240" type="curve" smooth="yes"/>
    </contour>
    <contour>
      <point x="280" y="540" type="curve" smooth="yes"/>
      <point x="156" y="540"/>
      <point x="67" y="419"/>
      <point x="67" y="213" type="curve" smooth="yes"/>
      <point x="67" y="178" type="line" smooth="yes"/>
      <point x="67" y="132"/>
      <point x="102" y="64"/>
      <point x="149" y="64" type="curve"/>
      <point x="166" y="64"/>
      <point x="179" y="69"/>
      <point x="180" y="83" type="curve"/>
      <point x="169" y="109"/>
      <point x="163" y="143"/>
      <point x="163" y="200" type="curve" smooth="yes"/>
      <point x="163" y="219" type="line" smooth="yes"/>
      <point x="163" y="358"/>
      <point x="209" y="452"/>
      <point x="295" y="452" type="curve" smooth="yes"/>
      <point x="352" y="452"/>
      <point x="379" y="434"/>
      <point x="430" y="387" type="curve"/>
      <point x="438" y="389"/>
      <point x="439" y="405"/>
      <point x="434" y="415" type="curve"/>
      <point x="422" y="465"/>
      <point x="355" y="540"/>
    </contour>
    <contour>
      <point x="218" y="-16" type="curve" smooth="yes"/>
      <point x="289" y="-16"/>
      <point x="374" y="40"/>
      <point x="422" y="102" type="curve" smooth="yes"/>
      <point x="444" y="129"/>
      <point x="449" y="148"/>
      <point x="448" y="189" type="curve"/>
      <point x="357" y="102"/>
      <point x="299" y="78"/>
      <point x="223" y="78" type="curve" smooth="yes"/>
      <point x="160" y="78"/>
      <point x="134" y="143"/>
      <point x="108" y="224" type="curve"/>
      <point x="77" y="222"/>
      <point x="67" y="199"/>
      <point x="67" y="178" type="curve" smooth="yes"/>
      <point x="67" y="79"/>
      <point x="127" y="-16"/>
    </contour>
  </outline>
</glyph>
<glyph name="r" format="1">
  <advance width="600"/>
  <unicode hex="0072"/>
  <outline>
    <contour>
      <point x="401" y="540" type="curve" smooth="yes"/>
      <point x="344" y="540"/>
      <point x="283" y="476"/>
      <point x="237" y="414" type="curve" smooth="yes"/>
      <point x="217" y="386"/>
      <point x="210" y="366"/>
      <point x="211" y="325" type="curve"/>
      <point x="290" y="409"/>
      <point x="337" y="442"/>
      <point x="391" y="442" type="curve" smooth="yes"/>
      <point x="432" y="442"/>
      <point x="465" y="422"/>
      <point x="488" y="375" type="curve"/>
      <point x="514" y="384"/>
      <point x="525" y="401"/>
      <point x="525" y="415" type="curve" smooth="yes"/>
      <point x="525" y="468"/>
      <point x="460" y="540"/>
    </contour>
    <contour>
      <point x="525" y="264" type="line"/>
      <point x="525" y="318"/>
      <point x="525" y="360"/>
      <point x="525" y="415" type="curve" smooth="yes"/>
      <point x="525" y="421"/>
      <point x="523" y="425"/>
      <point x="519" y="429" type="curve" smooth="yes"/>
      <point x="504" y="444"/>
      <point x="476" y="451"/>
      <point x="447" y="451" type="curve" smooth="yes"/>
      <point x="431" y="451" type="line"/>
      <point x="431" y="397"/>
      <point x="431" y="354"/>
      <point x="431" y="300" type="curve" smooth="yes"/>
      <point x="431" y="294"/>
      <point x="433" y="290"/>
      <point x="437" y="286" type="curve" smooth="yes"/>
      <point x="452" y="271"/>
      <point x="480" y="264"/>
      <point x="509" y="264" type="curve" smooth="yes"/>
    </contour>
    <contour>
      <point x="55" y="520" type="curve"/>
      <point x="55" y="504" type="line" smooth="yes"/>
      <point x="55" y="468"/>
      <point x="60" y="447"/>
      <point x="71" y="436" type="curve" smooth="yes"/>
      <point x="75" y="432"/>
      <point x="79" y="430"/>
      <point x="85" y="430" type="curve"/>
      <point x="138" y="430"/>
      <point x="146" y="430"/>
      <point x="199" y="430" type="curve"/>
      <point x="199" y="446" type="line" smooth="yes"/>
      <point x="199" y="466"/>
      <point x="187" y="495"/>
      <point x="169" y="514" type="curve" smooth="yes"/>
      <point x="165" y="518"/>
      <point x="161" y="520"/>
      <point x="155" y="520" type="curve" smooth="yes"/>
      <point x="133" y="520"/>
      <point x="77" y="520"/>
    </contour>
    <contour>
      <point x="245" y="-10" type="line"/>
      <point x="245" y="120"/>
      <point x="245" y="249"/>
      <point x="245" y="378" type="curve"/>
      <point x="245" y="452"/>
      <point x="213" y="520"/>
      <point x="171" y="520" type="curve" smooth="yes"/>
      <point x="151" y="520" type="line"/>
      <point x="151" y="430"/>
      <point x="151" y="290"/>
      <point x="151" y="209" type="curve" smooth="yes"/>
      <point x="151" y="148"/>
      <point x="151" y="86"/>
      <point x="151" y="26" type="curve"/>
      <point x="151" y="20"/>
      <point x="153" y="16"/>
      <point x="157" y="12" type="curve" smooth="yes"/>
      <point x="172" y="-3"/>
      <point x="200" y="-10"/>
      <point x="229" y="-10" type="curve" smooth="yes"/>
    </contour>
  </outline>
</glyph>
<glyph name="s" format="1">
  <advance width="600"/>
  <unicode hex="0073"/>
  <outline>
    <contour>
      <point x="370" y="540" type="curve" smooth="yes"/>
      <point x="225" y="540"/>
      <point x="96" y="459"/>
      <point x="96" y="370" type="curve" smooth="yes"/>
      <point x="96" y="350" type="line" smooth="yes"/>
      <point x="96" y="316"/>
      <point x="150" y="305"/>
      <point x="190" y="305" type="curve"/>
      <point x="187" y="322"/>
      <point x="186" y="344"/>
      <point x="186" y="360" type="curve" smooth="yes"/>
      <point x="186" y="410"/>
      <point x="273" y="450"/>
      <point x="365" y="450" type="curve" smooth="yes"/>
      <point x="420" y="450"/>
      <point x="455" y="441"/>
      <point x="481" y="426" type="curve"/>
      <point x="498" y="426" type="line"/>
      <point x="498" y="498" type="line" smooth="yes"/>
      <point x="498" y="522"/>
      <point x="447" y="540"/>
    </contour>
    <contour>
      <point x="378" y="282" type="curve" smooth="yes"/>
      <point x="286" y="300" type="line" smooth="yes"/>
      <point x="199" y="317"/>
      <point x="186" y="337"/>
      <point x="186" y="360" type="curve" smooth="yes"/>
      <point x="186" y="372"/>
      <point x="188" y="394"/>
      <point x="200" y="414" type="curve"/>
      <point x="135" y="406"/>
      <point x="96" y="384"/>
      <point x="96" y="350" type="curve"/>
      <point x="96" y="294"/>
      <point x="137" y="254"/>
      <point x="244" y="231" type="curve" smooth="yes"/>
      <point x="346" y="210" type="line" smooth="yes"/>
      <point x="432" y="192"/>
      <point x="458" y="157"/>
      <point x="472" y="101" type="curve"/>
      <point x="505" y="97"/>
      <point x="522" y="127"/>
      <point x="522" y="150" type="curve"/>
      <point x="522" y="215"/>
      <point x="479" y="262"/>
    </contour>
    <contour>
      <point x="307" y="-20" type="line" smooth="yes"/>
      <point x="440" y="-20"/>
      <point x="522" y="34"/>
      <point x="522" y="116" type="curve" smooth="yes"/>
      <point x="522" y="150" type="line"/>
      <point x="522" y="169"/>
      <point x="495" y="173"/>
      <point x="468" y="160" type="curve"/>
      <point x="460" y="100"/>
      <point x="413" y="70"/>
      <point x="300" y="70" type="curve" smooth="yes"/>
      <point x="196" y="70"/>
      <point x="146" y="80"/>
      <point x="89" y="124" type="curve"/>
      <point x="72" y="124" type="line"/>
      <point x="72" y="101"/>
      <point x="72" y="77"/>
      <point x="72" y="53" type="curve"/>
      <point x="72" y="14"/>
      <point x="153" y="-20"/>
      <point x="285" y="-20" type="curve" smooth="yes"/>
    </contour>
  </outline>
</glyph>
<glyph name="t" format="1">
  <advance width="600"/>
  <unicode hex="0074"/>
  <outline>
    <contour>
      <point x="531" y="130" type="line"/>
      <point x="517" y="130" type="line"/>
      <point x="472" y="80"/>
      <point x="420" y="60"/>
      <point x="354" y="60" type="curve" smooth="yes"/>
      <point x="306" y="60"/>
      <point x="273" y="66"/>
      <point x="236" y="99" type="curve"/>
      <point x="218" y="91"/>
      <point x="218" y="50"/>
      <point x="244" y="24" type="curve" smooth="yes"/>
      <point x="276" y="-8"/>
      <point x="299" y="-20"/>
      <point x="335" y="-20" type="curve" smooth="yes"/>
      <point x="344" y="-20"/>
      <point x="358" y="-20"/>
      <point x="367" y="-20" type="curve" smooth="yes"/>
      <point x="425" y="-20"/>
      <point x="480" y="0"/>
      <point x="509" y="30" type="curve" smooth="yes"/>
      <point x="524" y="44"/>
      <point x="531" y="61"/>
      <point x="531" y="82" type="curve"/>
    </contour>
    <contour>
      <point x="43" y="515" type="curve"/>
      <point x="43" y="489" type="line" smooth="yes"/>
      <point x="43" y="469"/>
      <point x="48" y="452"/>
      <point x="59" y="441" type="curve" smooth="yes"/>
      <point x="63" y="437"/>
      <point x="66" y="435"/>
      <point x="72" y="435" type="curve"/>
      <point x="140" y="435"/>
      <point x="211" y="435"/>
      <point x="278" y="435" type="curve"/>
      <point x="358" y="435"/>
      <point x="453" y="435"/>
      <point x="533" y="435" type="curve"/>
      <point x="533" y="450" type="line" smooth="yes"/>
      <point x="533" y="475"/>
      <point x="527" y="496"/>
      <point x="513" y="509" type="curve" smooth="yes"/>
      <point x="510" y="513"/>
      <point x="506" y="515"/>
      <point x="500" y="515" type="curve" smooth="yes"/>
      <point x="353" y="515"/>
      <point x="190" y="515"/>
    </contour>
    <contour>
      <point x="267" y="681" type="curve" smooth="yes"/>
      <point x="253" y="694"/>
      <point x="233" y="700"/>
      <point x="207" y="700" type="curve" smooth="yes"/>
      <point x="193" y="700" type="line"/>
      <point x="193" y="133" type="line" smooth="yes"/>
      <point x="193" y="87"/>
      <point x="212" y="56"/>
      <point x="244" y="24" type="curve"/>
      <point x="262" y="5"/>
      <point x="286" y="11"/>
      <point x="291" y="32" type="curve"/>
      <point x="277" y="66"/>
      <point x="273" y="105"/>
      <point x="273" y="160" type="curve" smooth="yes"/>
      <point x="273" y="667" type="line" smooth="yes"/>
      <point x="273" y="673"/>
      <point x="271" y="677"/>
    </contour>
  </outline>
</glyph>
<glyph name="u" format="1">
  <advance width="600"/>
  <unicode hex="0075"/>
  <outline>
    <contour>
      <point x="414" y="530" type="line"/>
      <point x="414" y="360"/>
      <point x="414" y="191"/>
      <point x="414" y="22" type="curve" smooth="yes"/>
      <point x="414" y="16"/>
      <point x="416" y="12"/>
      <point x="420" y="8" type="curve" smooth="yes"/>
      <point x="431" y="-3"/>
      <point x="463" y="-10"/>
      <point x="492" y="-10" type="curve" smooth="yes"/>
      <point x="508" y="-10" type="line"/>
      <point x="508" y="102"/>
      <point x="508" y="217"/>
      <point x="508" y="329" type="curve" smooth="yes"/>
      <point x="508" y="384"/>
      <point x="508" y="440"/>
      <point x="508" y="494" type="curve" smooth="yes"/>
      <point x="508" y="500"/>
      <point x="506" y="504"/>
      <point x="502" y="508" type="curve" smooth="yes"/>
      <point x="487" y="523"/>
      <point x="459" y="530"/>
      <point x="430" y="530" type="curve" smooth="yes"/>
    </contour>
    <contour>
      <point x="223" y="-16" type="curve" smooth="yes"/>
      <point x="293" y="-16"/>
      <point x="372" y="44"/>
      <point x="422" y="108" type="curve" smooth="yes"/>
      <point x="444" y="135"/>
      <point x="449" y="154"/>
      <point x="448" y="195" type="curve"/>
      <point x="356" y="106"/>
      <point x="302" y="78"/>
      <point x="232" y="78" type="curve" smooth="yes"/>
      <point x="184" y="78"/>
      <point x="155" y="98"/>
      <point x="132" y="143" type="curve"/>
      <point x="101" y="145"/>
      <point x="92" y="121"/>
      <point x="92" y="103" type="curve" smooth="yes"/>
      <point x="92" y="53"/>
      <point x="156" y="-16"/>
    </contour>
    <contour>
      <point x="92" y="530" type="line"/>
      <point x="92" y="373"/>
      <point x="92" y="259"/>
      <point x="92" y="103" type="curve" smooth="yes"/>
      <point x="92" y="96"/>
      <point x="94" y="93"/>
      <point x="98" y="89" type="curve" smooth="yes"/>
      <point x="113" y="73"/>
      <point x="141" y="67"/>
      <point x="170" y="67" type="curve" smooth="yes"/>
      <point x="186" y="67" type="line"/>
      <point x="186" y="167"/>
      <point x="186" y="228"/>
      <point x="186" y="329" type="curve" smooth="yes"/>
      <point x="186" y="384"/>
      <point x="186" y="440"/>
      <point x="186" y="494" type="curve" smooth="yes"/>
      <point x="186" y="500"/>
      <point x="184" y="504"/>
      <point x="180" y="508" type="curve" smooth="yes"/>
      <point x="165" y="523"/>
      <point x="137" y="530"/>
      <point x="108" y="530" type="curve" smooth="yes"/>
    </contour>
  </outline>
</glyph>
<glyph name="v" format="1">
  <advance width="600"/>
  <unicode hex="0076"/>
  <outline>
    <contour>
      <point x="453" y="530" type="curve" smooth="yes"/>
      <point x="437" y="530" type="line"/>
      <point x="413" y="253"/>
      <point x="381" y="147"/>
      <point x="272" y="55" type="curve" smooth="yes"/>
      <point x="255" y="41"/>
      <point x="260" y="-10"/>
      <point x="300" y="-10" type="curve"/>
      <point x="335" y="-10" type="line"/>
      <point x="450" y="82"/>
      <point x="507" y="238"/>
      <point x="528" y="484" type="curve" smooth="yes"/>
      <point x="530" y="509"/>
      <point x="495" y="530"/>
    </contour>
    <contour>
      <point x="85" y="530" type="curve" smooth="yes"/>
      <point x="69" y="530" type="line"/>
      <point x="92" y="261"/>
      <point x="131" y="122"/>
      <point x="229" y="23" type="curve" smooth="yes"/>
      <point x="255" y="-3"/>
      <point x="278" y="-10"/>
      <point x="300" y="-10" type="curve"/>
      <point x="326" y="-10"/>
      <point x="342" y="4"/>
      <point x="342" y="38" type="curve"/>
      <point x="231" y="125"/>
      <point x="189" y="239"/>
      <point x="166" y="499" type="curve" smooth="yes"/>
      <point x="164" y="518"/>
      <point x="126" y="530"/>
    </contour>
  </outline>
</glyph>
<glyph name="w" format="1">
  <advance width="900"/>
  <unicode hex="0077"/>
  <outline>
    <contour>
      <point x="143" y="512" type="curve" smooth="yes"/>
      <point x="131" y="524"/>
      <point x="97" y="530"/>
      <point x="69" y="530" type="curve" smooth="yes"/>
      <point x="53" y="530" type="line"/>
      <point x="75" y="264"/>
      <point x="104" y="130"/>
      <point x="198" y="33" type="curve" smooth="yes"/>
      <point x="232" y="-2"/>
      <point x="256" y="-10"/>
      <point x="280" y="-10" type="curve"/>
      <point x="305" y="-10"/>
      <point x="320" y="4"/>
      <point x="320" y="37" type="curve"/>
      <point x="208" y="126"/>
      <point x="171" y="238"/>
      <point x="150" y="491" type="curve" smooth="yes"/>
      <point x="149" y="504"/>
      <point x="148" y="507"/>
    </contour>
    <contour>
      <point x="477" y="396" type="curve" smooth="yes"/>
      <point x="466" y="407"/>
      <point x="447" y="420"/>
      <point x="427" y="420" type="curve" smooth="yes"/>
      <point x="411" y="420" type="line"/>
      <point x="384" y="213"/>
      <point x="342" y="139"/>
      <point x="258" y="51" type="curve"/>
      <point x="244" y="35"/>
      <point x="252" y="-10"/>
      <point x="280" y="-10" type="curve"/>
      <point x="315" y="-10" type="line"/>
      <point x="400" y="73"/>
      <point x="455" y="190"/>
      <point x="482" y="378" type="curve"/>
      <point x="482" y="385"/>
      <point x="481" y="391"/>
    </contour>
    <contour>
      <point x="478" y="486" type="curve" smooth="yes"/>
      <point x="467" y="498"/>
      <point x="435" y="504"/>
      <point x="408" y="504" type="curve" smooth="yes"/>
      <point x="393" y="504" type="line"/>
      <point x="413" y="241"/>
      <point x="460" y="99"/>
      <point x="530" y="29" type="curve" smooth="yes"/>
      <point x="562" y="-3"/>
      <point x="584" y="-10"/>
      <point x="608" y="-10" type="curve"/>
      <point x="625" y="-10"/>
      <point x="635" y="5"/>
      <point x="635" y="38" type="curve"/>
      <point x="544" y="116"/>
      <point x="508" y="226"/>
      <point x="486" y="465" type="curve" smooth="yes"/>
      <point x="484" y="479"/>
      <point x="483" y="482"/>
    </contour>
    <contour>
      <point x="838" y="503" type="curve" smooth="yes"/>
      <point x="823" y="518"/>
      <point x="798" y="530"/>
      <point x="769" y="530" type="curve" smooth="yes"/>
      <point x="753" y="530" type="line"/>
      <point x="729" y="254"/>
      <point x="688" y="146"/>
      <point x="578" y="56" type="curve"/>
      <point x="565" y="40"/>
      <point x="575" y="-10"/>
      <point x="608" y="-10" type="curve"/>
      <point x="643" y="-10" type="line"/>
      <point x="762" y="85"/>
      <point x="822" y="238"/>
      <point x="844" y="482" type="curve" smooth="yes"/>
      <point x="845" y="492"/>
      <point x="843" y="498"/>
    </contour>
  </outline>
</glyph>
<glyph name="x" format="1">
  <advance width="600"/>
  <unicode hex="0078"/>
  <outline>
    <contour>
      <point x="509" y="-10" type="curve" smooth="yes"/>
      <point x="535" y="-10"/>
      <point x="546" y="3"/>
      <point x="546" y="38" type="curve"/>
      <point x="546" y="84" type="line"/>
      <point x="482" y="100"/>
      <point x="432" y="135"/>
      <point x="349" y="218" type="curve" smooth="yes"/>
      <point x="285" y="282"/>
      <point x="237" y="360"/>
      <point x="172" y="498" type="curve" smooth="yes"/>
      <point x="169" y="506"/>
      <point x="167" y="509"/>
      <point x="163" y="512" type="curve" smooth="yes"/>
      <point x="152" y="524"/>
      <point x="125" y="530"/>
      <point x="87" y="530" type="curve" smooth="yes"/>
      <point x="65" y="530" type="line"/>
      <point x="117" y="376"/>
      <point x="188" y="249"/>
      <point x="289" y="145" type="curve" smooth="yes"/>
      <point x="388" y="46"/>
      <point x="463" y="-10"/>
    </contour>
    <contour>
      <point x="532" y="506" type="curve" smooth="yes"/>
      <point x="516" y="522"/>
      <point x="487" y="530"/>
      <point x="461" y="530" type="curve" smooth="yes"/>
      <point x="445" y="530" type="line"/>
      <point x="400" y="389"/>
      <point x="368" y="326"/>
      <point x="279" y="256" type="curve"/>
      <point x="260" y="231"/>
      <point x="283" y="203"/>
      <point x="326" y="203" type="curve"/>
      <point x="441" y="294"/>
      <point x="497" y="373"/>
      <point x="535" y="486" type="curve" smooth="yes"/>
      <point x="539" y="496"/>
      <point x="537" y="501"/>
    </contour>
    <contour>
      <point x="60" y="14" type="curve" smooth="yes"/>
      <point x="76" y="-2"/>
      <point x="101" y="-10"/>
      <point x="127" y="-10" type="curve" smooth="yes"/>
      <point x="143" y="-10" type="line"/>
      <point x="174" y="76"/>
      <point x="204" y="132"/>
      <point x="295" y="203" type="curve"/>
      <point x="308" y="224"/>
      <point x="291" y="254"/>
      <point x="251" y="254" type="curve"/>
      <point x="117" y="161"/>
      <point x="63" y="78"/>
      <point x="56" y="31" type="curve" smooth="yes"/>
      <point x="54" y="23"/>
      <point x="55" y="18"/>
    </contour>
  </outline>
</glyph>
<glyph name="y" format="1">
  <advance width="600"/>
  <unicode hex="0079"/>
  <outline>
    <contour>
      <point x="149" y="512" type="curve" smooth="yes"/>
      <point x="137" y="524"/>
      <point x="103" y="530"/>
      <point x="75" y="530" type="curve" smooth="yes"/>
      <point x="59" y="530" type="line"/>
      <point x="72" y="376" type="line" smooth="yes"/>
      <point x="81" y="258"/>
      <point x="111" y="160"/>
      <point x="191" y="79" type="curve" smooth="yes"/>
      <point x="254" y="16"/>
      <point x="310" y="4"/>
      <point x="351" y="4" type="curve"/>
      <point x="371" y="4"/>
      <point x="393" y="32"/>
      <point x="393" y="78" type="curve"/>
      <point x="344" y="84"/>
      <point x="299" y="96"/>
      <point x="258" y="137" type="curve" smooth="yes"/>
      <point x="201" y="194"/>
      <point x="175" y="257"/>
      <point x="165" y="379" type="curve" smooth="yes"/>
      <point x="156" y="496" type="line" smooth="yes"/>
      <point x="155" y="505"/>
      <point x="153" y="508"/>
    </contour>
    <contour>
      <point x="533" y="502" type="curve" smooth="yes"/>
      <point x="518" y="517"/>
      <point x="492" y="530"/>
      <point x="463" y="530" type="curve" smooth="yes"/>
      <point x="447" y="530" type="line"/>
      <point x="436" y="394" type="line" smooth="yes"/>
      <point x="415" y="163"/>
      <point x="370" y="32"/>
      <point x="244" y="-94" type="curve" smooth="yes"/>
      <point x="213" y="-124"/>
      <point x="182" y="-154"/>
      <point x="127" y="-196" type="curve"/>
      <point x="127" y="-226"/>
      <point x="140" y="-250"/>
      <point x="167" y="-250" type="curve" smooth="yes"/>
      <point x="198" y="-250"/>
      <point x="235" y="-236"/>
      <point x="277" y="-194" type="curve" smooth="yes"/>
      <point x="433" y="-39"/>
      <point x="507" y="128"/>
      <point x="528" y="367" type="curve" smooth="yes"/>
      <point x="537" y="481" type="line" smooth="yes"/>
      <point x="538" y="491"/>
      <point x="537" y="497"/>
    </contour>
    <contour>
      <point x="52" y="-160" type="curve"/>
      <point x="52" y="-176" type="line" smooth="yes"/>
      <point x="52" y="-205"/>
      <point x="59" y="-229"/>
      <point x="74" y="-244" type="curve" smooth="yes"/>
      <point x="78" y="-248"/>
      <point x="82" y="-250"/>
      <point x="88" y="-250" type="curve"/>
      <point x="128" y="-250"/>
      <point x="128" y="-250"/>
      <point x="167" y="-250" type="curve" smooth="yes"/>
      <point x="207" y="-250"/>
      <point x="240" y="-207"/>
      <point x="245" y="-160" type="curve"/>
      <point x="179" y="-160"/>
      <point x="116" y="-160"/>
    </contour>
  </outline>
</glyph>
<glyph name="z" format="1">
  <advance width="600"/>
  <unicode hex="007A"/>
  <outline>
    <contour>
      <point x="74" y="520" type="curve"/>
      <point x="74" y="504" type="line" smooth="yes"/>
      <point x="74" y="475"/>
      <point x="81" y="451"/>
      <point x="96" y="436" type="curve" smooth="yes"/>
      <point x="100" y="432"/>
      <point x="104" y="430"/>
      <point x="110" y="430" type="curve"/>
      <point x="165" y="430"/>
      <point x="204" y="430"/>
      <point x="259" y="430" type="curve" smooth="yes"/>
      <point x="342" y="430"/>
      <point x="443" y="430"/>
      <point x="526" y="430" type="curve"/>
      <point x="526" y="466"/>
      <point x="515" y="495"/>
      <point x="496" y="514" type="curve" smooth="yes"/>
      <point x="492" y="518"/>
      <point x="488" y="520"/>
      <point x="482" y="520" type="curve" smooth="yes"/>
      <point x="346" y="520"/>
      <point x="211" y="520"/>
    </contour>
    <contour>
      <point x="522" y="443" type="curve" smooth="yes"/>
      <point x="501" y="464"/>
      <point x="490" y="477"/>
      <point x="456" y="477" type="curve"/>
      <point x="371" y="330"/>
      <point x="213" y="179"/>
      <point x="74" y="90" type="curve"/>
      <point x="74" y="63"/>
      <point x="93" y="50"/>
      <point x="110" y="50" type="curve" smooth="yes"/>
      <point x="132" y="50"/>
      <point x="144" y="54"/>
      <point x="164" y="64" type="curve" smooth="yes"/>
      <point x="346" y="171"/>
      <point x="526" y="383"/>
      <point x="526" y="430" type="curve" smooth="yes"/>
      <point x="526" y="436"/>
      <point x="525" y="440"/>
    </contour>
    <contour>
      <point x="526" y="0" type="curve"/>
      <point x="526" y="16" type="line" smooth="yes"/>
      <point x="526" y="36"/>
      <point x="515" y="65"/>
      <point x="496" y="84" type="curve" smooth="yes"/>
      <point x="492" y="88"/>
      <point x="488" y="90"/>
      <point x="482" y="90" type="curve" smooth="yes"/>
      <point x="346" y="90"/>
      <point x="211" y="90"/>
      <point x="74" y="90" type="curve"/>
      <point x="74" y="74" type="line" smooth="yes"/>
      <point x="74" y="45"/>
      <point x="81" y="21"/>
      <point x="96" y="6" type="curve" smooth="yes"/>
      <point x="100" y="2"/>
      <point x="104" y="0"/>
      <point x="110" y="0" type="curve"/>
      <point x="165" y="0"/>
      <point x="204" y="0"/>
      <point x="259" y="0" type="curve" smooth="yes"/>
      <point x="342" y="0"/>
      <point x="443" y="0"/>
    </contour>
  </outline>
</glyph>
<glyph name="f.ss01" format="1">
  <advance width="600"/>
  <outline>
    <contour>
      <point x="240" y="628" type="curve"/>
      <point x="281" y="665"/>
      <point x="328" y="676"/>
      <point x="400" y="676" type="curve" smooth="yes"/>
      <point x="459" y="676"/>
      <point x="511" y="662"/>
      <point x="544" y="645" type="curve"/>
      <point x="560" y="645" type="line"/>
      <point x="560" y="665" type="line"/>
      <point x="560" y="695"/>
      <point x="553" y="717"/>
      <point x="544" y="727" type="curve" smooth="yes"/>
      <point x="532" y="741"/>
      <point x="482" y="760"/>
      <point x="431" y="760" type="curve"/>
      <point x="389" y="760" type="line"/>
      <point x="324" y="760"/>
      <point x="278" y="747"/>
      <point x="231" y="701" type="curve" smooth="yes"/>
      <point x="212" y="681"/>
      <point x="215" y="649"/>
    </contour>
    <contour>
      <point x="270" y="18" type="line"/>
      <point x="270" y="204"/>
      <point x="270" y="361"/>
      <point x="270" y="520" type="curve" smooth="yes"/>
      <point x="270" y="593"/>
      <point x="260" y="652"/>
      <point x="290" y="710" type="curve"/>
      <point x="269" y="725"/>
      <point x="248" y="717"/>
      <point x="231" y="701" type="curve" smooth="yes"/>
      <point x="195" y="664"/>
      <point x="180" y="629"/>
      <point x="180" y="563" type="curve"/>
      <point x="180" y="427"/>
      <point x="180" y="241"/>
      <point x="180" y="54" type="curve"/>
      <point x="180" y="48"/>
      <point x="182" y="44"/>
      <point x="186" y="40" type="curve" smooth="yes"/>
      <point x="201" y="25"/>
      <point x="225" y="18"/>
      <point x="254" y="18" type="curve" smooth="yes"/>
    </contour>
    <contour>
      <point x="40" y="520" type="curve"/>
      <point x="40" y="504" type="line" smooth="yes"/>
      <point x="40" y="474"/>
      <point x="47" y="451"/>
      <point x="62" y="436" type="curve" smooth="yes"/>
      <point x="66" y="432"/>
      <point x="70" y="430"/>
      <point x="76" y="430" type="curve"/>
      <point x="131" y="430"/>
      <point x="193" y="430"/>
      <point x="249" y="430" type="curve"/>
      <point x="313" y="430"/>
      <point x="451" y="430"/>
      <point x="510" y="430" type="curve"/>
      <point x="510" y="446" type="line" smooth="yes"/>
      <point x="510" y="476"/>
      <point x="503" y="499"/>
      <point x="488" y="514" type="curve" smooth="yes"/>
      <point x="484" y="518"/>
      <point x="480" y="520"/>
      <point x="474" y="520" type="curve" smooth="yes"/>
      <point x="360" y="520"/>
      <point x="155" y="520"/>
    </contour>
    <contour>
      <point x="50" y="90" type="curve"/>
      <point x="50" y="74" type="line" smooth="yes"/>
      <point x="50" y="44"/>
      <point x="57" y="21"/>
      <point x="72" y="6" type="curve" smooth="yes"/>
      <point x="76" y="2"/>
      <point x="80" y="0"/>
      <point x="86" y="0" type="curve"/>
      <point x="143" y="0"/>
      <point x="201" y="0"/>
      <point x="259" y="0" type="curve"/>
      <point x="347" y="0"/>
      <point x="412" y="0"/>
      <point x="500" y="0" type="curve"/>
      <point x="500" y="16" type="line" smooth="yes"/>
      <point x="500" y="38"/>
      <point x="487" y="67"/>
      <point x="470" y="84" type="curve" smooth="yes"/>
      <point x="466" y="88"/>
      <point x="462" y="90"/>
      <point x="456" y="90" type="curve" smooth="yes"/>
      <point x="312" y="90"/>
      <point x="194" y="90"/>
    </contour>
  </outline>
</glyph>
<glyph name="g.ver02" format="1">
  <advance width="600"/>
  <outline>
    <contour>
      <point x="315" y="459" type="curve" smooth="yes"/>
      <point x="373" y="459"/>
      <point x="427" y="446"/>
      <point x="458" y="421" type="curve"/>
      <point x="485" y="455"/>
      <point x="485" y="479"/>
      <point x="465" y="499" type="curve" smooth="yes"/>
      <point x="435" y="529"/>
      <point x="363" y="540"/>
      <point x="307" y="540" type="curve" smooth="yes"/>
      <point x="172" y="540"/>
      <point x="72" y="473"/>
      <point x="72" y="362" type="curve" smooth="yes"/>
      <point x="72" y="310" type="line" smooth="yes"/>
      <point x="72" y="261"/>
      <point x="85" y="235"/>
      <point x="133" y="188" type="curve" smooth="yes"/>
      <point x="152" y="168"/>
      <point x="187" y="171"/>
      <point x="200" y="186" type="curve"/>
      <point x="167" y="226"/>
      <point x="160" y="239"/>
      <point x="160" y="277" type="curve" smooth="yes"/>
      <point x="160" y="330" type="line" smooth="yes"/>
      <point x="160" y="422"/>
      <point x="216" y="459"/>
    </contour>
    <contour>
      <point x="297" y="217" type="curve" smooth="yes"/>
      <point x="240" y="217"/>
      <point x="171" y="223"/>
      <point x="122" y="251" type="curve"/>
      <point x="111" y="229"/>
      <point x="114" y="207"/>
      <point x="133" y="188" type="curve" smooth="yes"/>
      <point x="178" y="141"/>
      <point x="231" y="135"/>
      <point x="309" y="135" type="curve" smooth="yes"/>
      <point x="448" y="135"/>
      <point x="528" y="211"/>
      <point x="528" y="321" type="curve" smooth="yes"/>
      <point x="528" y="373" type="line" smooth="yes"/>
      <point x="528" y="415"/>
      <point x="516" y="448"/>
      <point x="465" y="499" type="curve" smooth="yes"/>
      <point x="449" y="515"/>
      <point x="405" y="512"/>
      <point x="390" y="497" type="curve"/>
      <point x="431" y="462"/>
      <point x="442" y="442"/>
      <point x="442" y="392" type="curve" smooth="yes"/>
      <point x="442" y="328" type="line" smooth="yes"/>
      <point x="442" y="261"/>
      <point x="385" y="217"/>
    </contour>
    <contour>
      <point x="120" y="61" type="curve" smooth="yes"/>
      <point x="120" y="48" type="line" smooth="yes"/>
      <point x="120" y="-8"/>
      <point x="162" y="-39"/>
      <point x="235" y="-39" type="curve" smooth="yes"/>
      <point x="432" y="-39" type="line" smooth="yes"/>
      <point x="455" y="-39"/>
      <point x="471" y="-56"/>
      <point x="471" y="-79" type="curve" smooth="yes"/>
      <point x="471" y="-124" type="line" smooth="yes"/>
      <point x="471" y="-160"/>
      <point x="467" y="-175"/>
      <point x="452" y="-201" type="curve"/>
      <point x="465" y="-206"/>
      <point x="502" y="-201"/>
      <point x="513" y="-191" type="curve" smooth="yes"/>
      <point x="546" y="-157"/>
      <point x="560" y="-132"/>
      <point x="560" y="-90" type="curve" smooth="yes"/>
      <point x="560" y="-49" type="line" smooth="yes"/>
      <point x="560" y="4"/>
      <point x="514" y="45"/>
      <point x="455" y="45" type="curve" smooth="yes"/>
      <point x="238" y="45" type="line" smooth="yes"/>
      <point x="216" y="45"/>
      <point x="210" y="51"/>
      <point x="210" y="73" type="curve" smooth="yes"/>
      <point x="210" y="98" type="line" smooth="yes"/>
      <point x="210" y="118"/>
      <point x="221" y="143"/>
      <point x="231" y="157" type="curve"/>
      <point x="231" y="164"/>
      <point x="229" y="168"/>
      <point x="222" y="170" type="curve" smooth="yes"/>
      <point x="188" y="170"/>
      <point x="120" y="107"/>
    </contour>
    <contour>
      <point x="529" y="-126" type="curve"/>
      <point x="457" y="-176"/>
      <point x="410" y="-180"/>
      <point x="330" y="-180" type="curve"/>
      <point x="242" y="-180" type="line"/>
      <point x="180" y="-180"/>
      <point x="149" y="-157"/>
      <point x="149" y="-109" type="curve" smooth="yes"/>
      <point x="149" y="-92" type="line" smooth="yes"/>
      <point x="149" y="-67"/>
      <point x="165" y="-33"/>
      <point x="199" y="-21" type="curve"/>
      <point x="199" y="-13"/>
      <point x="195" y="-6"/>
      <point x="187" y="-6" type="curve"/>
      <point x="116" y="-6"/>
      <point x="65" y="-59"/>
      <point x="65" y="-122" type="curve" smooth="yes"/>
      <point x="65" y="-135" type="line" smooth="yes"/>
      <point x="65" y="-199"/>
      <point x="126" y="-250"/>
      <point x="213" y="-250" type="curve"/>
      <point x="286" y="-250" type="line"/>
      <point x="389" y="-250"/>
      <point x="468" y="-235"/>
      <point x="513" y="-191" type="curve"/>
      <point x="533" y="-170"/>
      <point x="541" y="-138"/>
    </contour>
    <contour>
      <point x="448" y="482" type="curve" smooth="yes"/>
      <point x="520" y="546" type="line" smooth="yes"/>
      <point x="546" y="569"/>
      <point x="560" y="583"/>
      <point x="560" y="613" type="curve" smooth="yes"/>
      <point x="560" y="617"/>
      <point x="560" y="625"/>
      <point x="560" y="629" type="curve" smooth="yes"/>
      <point x="560" y="635"/>
      <point x="558" y="639"/>
      <point x="554" y="643" type="curve" smooth="yes"/>
      <point x="539" y="658"/>
      <point x="511" y="665"/>
      <point x="482" y="665" type="curve" smooth="yes"/>
      <point x="470" y="665" type="line"/>
      <point x="470" y="659"/>
      <point x="470" y="647"/>
      <point x="470" y="641" type="curve" smooth="yes"/>
      <point x="470" y="622"/>
      <point x="465" y="609"/>
      <point x="458" y="592" type="curve" smooth="yes"/>
      <point x="414" y="489" type="line"/>
      <point x="422" y="480"/>
      <point x="439" y="475"/>
    </contour>
  </outline>
</glyph>
